<?xml version="1.0" standalone="no"?>
<!DOCTYPE svg PUBLIC "-//W3C//DTD SVG 20010904//EN" "http://www.w3.org/TR/2001/REC-SVG-20010904/DTD/svg10.dtd">
<svg version="1.0" xmlns="http://www.w3.org/2000/svg" width="360.000000pt" height="360.000000pt" viewBox="0 0 360.000000 360.000000" preserveAspectRatio="xMidYMid meet">
    <g transform="translate(0.000000,360.000000) scale(0.100000,-0.100000)" fill="#000000" stroke="none">
        <path d="M1670 3479 c-206 -15 -411 -71 -605 -164 -757 -365 -1128 -1241 -865
            -2045 42 -130 146 -336 227 -450 87 -121 272 -306 393 -393 113 -80 319 -185
            447 -227 248 -82 560 -106 813 -64 241 41 501 150 711 300 112 79 299 268 381
            384 81 114 185 320 227 449 236 718 -35 1510 -659 1929 -228 153 -524 259
            -775 277 -164 12 -192 12 -295 4z m422 -188 c116 -24 284 -79 368 -121 441
            -223 735 -609 837 -1100 25 -120 25 -420 0 -545 -62 -304 -190 -552 -402 -774
            -221 -231 -499 -383 -820 -448 -136 -27 -434 -24 -571 5 -328 71 -581 214
            -816 460 -193 203 -326 466 -385 758 -24 123 -24 412 0 541 58 314 196 574
            426 803 233 233 504 376 802 424 52 9 105 18 119 20 59 11 349 -4 442 -23z"/>
        <path d="M1380 2603 c-24 -12 -43 -34 -60 -68 l-25 -50 0 -685 c0 -683 0 -685
            22 -732 37 -80 113 -108 197 -73 80 34 983 632 1023 678 65 74 67 169 4 247
            -26 32 -827 570 -977 655 -76 44 -136 53 -184 28z m262 -271 c56 -38 238 -158
            403 -266 165 -109 310 -207 323 -219 24 -23 29 -64 10 -89 -11 -14 -774 -519
            -826 -547 -36 -19 -68 -13 -80 14 -16 34 -17 1127 -2 1156 19 35 62 23 172
            -49z"/>
    </g>
</svg>
