<?xml version="1.0" encoding="UTF-8" standalone="no"?>
<!-- Created with Inkscape (http://www.inkscape.org/) -->

<svg
   version="1.1"
   id="svg1"
   width="240.3062"
   height="256.87006"
   viewBox="0 0 240.3062 256.87006"
   sodipodi:docname="logoInventat.png"
   inkscape:version="1.4 (86a8ad7, 2024-10-11)"
   xmlns:inkscape="http://www.inkscape.org/namespaces/inkscape"
   xmlns:sodipodi="http://sodipodi.sourceforge.net/DTD/sodipodi-0.dtd"
   xmlns="http://www.w3.org/2000/svg"
   xmlns:svg="http://www.w3.org/2000/svg">
  <defs
     id="defs1" />
  <sodipodi:namedview
     id="namedview1"
     pagecolor="#ffffff"
     bordercolor="#000000"
     borderopacity="0.25"
     inkscape:showpageshadow="2"
     inkscape:pageopacity="0.0"
     inkscape:pagecheckerboard="0"
     inkscape:deskcolor="#d1d1d1"
     inkscape:zoom="1.65134"
     inkscape:cx="98.707716"
     inkscape:cy="154.11726"
     inkscape:window-width="1920"
     inkscape:window-height="991"
     inkscape:window-x="-9"
     inkscape:window-y="-9"
     inkscape:window-maximized="1"
     inkscape:current-layer="g1" />
  <g
     inkscape:groupmode="layer"
     inkscape:label="Image"
     id="g1"
     transform="translate(-34.990671,-35.113133)">
    <path
       style="fill:#000000"
       d="m 158.23695,289.87669 c -3.04995,-1.95315 -3.42316,-1.9847 -5.71481,-0.48315 -3.41145,2.23527 -3.699,2.06615 -2.98234,-1.75401 0.53076,-2.82921 0.22175,-3.68194 -1.95469,-5.39392 C 144.10441,279.50769 144.3133,279 148.92054,279 c 3.54307,0 3.98399,-0.28884 4.57946,-3 0.3624,-1.65 0.9745,-3 1.36022,-3 0.38572,0 1.21087,1.35 1.83368,3 0.96828,2.56528 1.65214,3 4.71924,3 4.27858,0 4.39618,0.39978 0.98158,3.3369 -2.38023,2.04739 -2.51677,2.56155 -1.58061,5.95203 0.56357,2.04109 0.94845,3.70349 0.85528,3.69422 -0.0932,-0.009 -1.63776,-0.95717 -3.43244,-2.10646 z M 51,283.10377 c 0.825,-0.45947 4.425,-1.10588 8,-1.43646 3.575,-0.33058 22.130958,-2.19096 41.23546,-4.13418 19.10451,-1.94322 35.19201,-3.53313 35.75,-3.53313 0.558,0 1.01454,2.25 1.01454,5 v 5 L 93.25,283.9696 C 69.1875,283.95287 50.175,283.56325 51,283.10377 Z M 173,279 c 0,-3.3342 0.41645,-4.99946 1.25,-4.99837 6.39767,0.008 87.79652,8.71156 88.55314,9.46818 C 263.09475,283.76141 243.00833,284 218.16667,284 H 173 Z m 96.10803,-2.34643 -5.39196,-1.15357 -3.68406,-8 -3.68406,-8 -3.92397,7.18948 -3.92398,7.18948 -4.5,-0.56911 c -2.475,-0.31301 -4.87112,-0.90439 -5.32471,-1.31419 -0.45359,-0.40979 1.90891,-5.56017 5.25,-11.44528 C 247.26638,254.66526 250,249.42696 250,248.90971 c 0,-0.51726 -2.70347,-6.33354 -6.00771,-12.92509 L 237.98458,224 h 5.53758 5.53758 l 3.14735,7 c 1.73104,3.85 3.43066,7 3.77694,7 0.34627,0 2.15346,-3.15 4.01597,-7 l 3.38638,-7 h 5.8825 5.88249 l -6.69061,12.78391 -6.69062,12.78391 7.12161,14.21609 c 3.91688,7.81885 6.7811,14.1727 6.36493,14.11966 -0.41618,-0.053 -3.18306,-0.61553 -6.14865,-1.25 z M 36,250.45228 v -26.54771 l 6.16692,0.29771 6.166921,0.29772 4.583079,16.24881 c 2.520694,8.93684 4.80808,16.24877 5.08308,16.24872 0.275,-5e-5 2.232919,-6.41201 4.350931,-14.24881 C 67.817046,222.5237 66.941693,224 73.467776,224 H 79 v 24 24 h -3.418213 c -1.880016,0 -4.114882,0.26734 -4.966368,0.59408 -1.331832,0.51108 -1.587789,-0.99103 -1.831788,-10.75 L 68.5,250.5 65.589747,261.84288 c -1.60064,6.23858 -3.40064,11.48714 -4,11.66347 -0.599361,0.17632 -2.496602,0.56214 -4.216091,0.85738 L 54.247312,274.90054 50.696861,262.70027 47.146409,250.5 47.073205,263.11916 47,275.73832 43.25,276.35815 C 35.321955,277.66858 36,280.09138 36,250.45228 Z m 47,19.9053 C 83,269.75547 89.723035,245.79774 94.114707,230.75 L 96.08469,224 h 6.28954 6.28954 l 6.16812,20.90901 C 118.22435,256.40896 121,266.33248 121,266.96127 c 0,0.7502 -1.79359,1.03933 -5.21692,0.84099 -5.15214,-0.29851 -5.22818,-0.35008 -6.12308,-4.15264 -0.85091,-3.61564 -1.08918,-3.81378 -3.90808,-3.25 -1.65106,0.33021 -4.51419,0.60038 -6.362522,0.60038 -3.135188,0 -3.434641,0.29404 -4.464422,4.38367 -1.005052,3.99142 -1.431367,4.43783 -4.764398,4.98899 C 85.396859,271.16041 83,271.15536 83,270.35758 Z m 23.59862,-18.74517 c 0.0542,-0.0618 -0.89201,-3.71241 -2.10277,-8.11241 l -2.20138,-8 -1.63093,7.12573 c -0.897016,3.91915 -1.896705,7.81831 -2.221535,8.66481 -0.493817,1.28686 0.118039,1.44855 3.733695,0.98668 2.37837,-0.30382 4.36868,-0.60298 4.42292,-0.66481 z M 214,269.79126 c -12.50164,-1.38409 -12,-0.40634 -12,-23.38954 0,-23.73963 -0.94746,-22.41212 15.97251,-22.37948 16.6715,0.0322 15.70982,-1.37373 16.26656,23.78017 0.56889,25.70315 1.74716,24.42301 -20.23907,21.98885 z M 224,247.5 V 233 h -6 -6 v 13.9425 13.9425 l 4.25,0.38279 c 2.3375,0.21054 5.0375,0.46141 6,0.5575 1.59424,0.15916 1.75,-1.11588 1.75,-14.32529 z m -99.68439,17.8998 c 0.83705,-1.59489 3.76389,-6.65114 6.50409,-11.23612 l 4.98217,-8.33632 -5.90094,-9.99516 C 126.65542,230.33486 124,225.4237 124,224.91852 c 0,-0.50519 2.3625,-0.91456 5.25,-0.90971 l 5.25,0.009 3.60319,6.59509 3.60319,6.59509 3.48153,-6.3539 3.48154,-6.35389 5.76625,-0.30292 c 3.17143,-0.1666 5.60831,0.0584 5.41527,0.5 -0.19303,0.44161 -2.93847,5.14582 -6.10097,10.4538 -3.1625,5.30799 -5.75,10.08735 -5.75,10.62082 0,0.53347 2.71353,5.41557 6.03006,10.84912 l 6.03006,9.87918 -4.653,0.30981 c -2.55915,0.1704 -5.20767,0.097 -5.88561,-0.16318 -0.67793,-0.26015 -2.68369,-3.04419 -4.45725,-6.18677 l -3.22465,-5.71377 -3.5252,5.87696 c -1.93886,3.23232 -3.61333,5.97501 -3.72104,6.09485 -0.10772,0.11985 -2.8067,0.52476 -5.99775,0.89981 l -5.80191,0.6819 z M 168.75,267.26496 164,266.89042 V 245.44521 224 h 13.82569 c 13.15885,0 13.93055,0.11163 16,2.31445 1.83755,1.95599 2.17431,3.48823 2.17431,9.89301 0,6.09424 -0.32045,7.70153 -1.63612,8.2064 -1.51483,0.58129 -1.51483,0.76187 0,2.43573 1.22983,1.35895 1.63612,3.80847 1.63612,9.86414 0,7.45918 -0.18267,8.17594 -2.46482,9.67126 -2.43504,1.5955 -11.58899,1.9205 -24.78518,0.87997 z M 185.8075,254.75 185.5,250.5 180.25,250.19774 175,249.89548 V 254.44774 259 h 5.5575 5.5575 z M 185,237 v -4 h -5 -5 v 4 4 h 5 5 z M 35,216.13067 c 0.825,-0.44468 6.7957,-2.3189 13.268222,-4.16492 6.472523,-1.84603 11.645851,-3.60602 11.496285,-3.91108 C 59.614941,207.7496 57.605488,203.675 55.299054,199 41.736879,171.51029 40.838329,138.60607 52.914788,111.68992 57.54356,101.37326 64.584385,91 66.95802,91 c 1.785133,0 1.577291,0.651482 -1.947851,6.105562 -11.382225,17.610518 -17.246366,45.915358 -14.082455,67.972728 1.579703,11.01299 6.810452,26.49319 12.206117,36.12353 4.027866,7.18906 4.431653,7.5964 6.06496,6.11828 1.662574,-1.50461 1.648418,-1.72593 -0.283971,-4.43972 C 65.239896,197.71942 60.105969,185.43346 57.633736,175.88369 53.289399,159.10235 53.275515,143.8148 57.588527,126.10154 59.642584,117.66566 67.91745,100.11556 73.039801,93.33106 75.21791,90.446174 77,87.803384 77,87.458191 77,86.899945 66.993175,73.72112 47.066902,48.03679 c -7.305584,-9.416664 -7.33256,-9.418056 5.866296,0.302704 10.695198,7.876852 39.944117,28.875228 41.771399,29.98851 0.692659,0.422007 3.242578,-0.715833 6.000003,-2.677355 2.63747,-1.876195 6.7079,-4.374271 9.0454,-5.55128 2.3375,-1.177009 4.25,-2.544067 4.25,-3.037905 0,-0.493839 0.28838,-1.64939 0.64084,-2.567891 0.51288,-1.336549 -0.43556,-1.126347 -4.75,1.052735 -2.96496,1.497506 -7.30615,4.035753 -9.64708,5.640549 -3.902628,2.675396 -4.432314,2.794483 -6.375563,1.433378 -2.06515,-1.446487 -1.972742,-1.5782 3.615011,-5.152643 7.616712,-4.872352 23.128752,-12.169946 27.581532,-12.975647 2.88801,-0.522567 3.74228,-1.238407 4.5,-3.770786 1.92267,-6.425815 21.8986,-14.202143 39.59269,-15.412835 11.2478,-0.769613 17.06014,0.673342 21.99174,5.459613 3.60047,3.494357 4.17407,4.91751 6.4035,15.887755 0.28988,1.426394 2.72327,3.40468 7.19271,5.847501 3.71504,2.030494 8.28114,4.84466 10.14688,6.253703 3.04941,2.302974 3.22295,2.685691 1.7171,3.786798 -1.40466,1.027113 -2.98812,0.435789 -9.80628,-3.662044 -4.47211,-2.687821 -8.3234,-4.694667 -8.5584,-4.459659 -1.2792,1.279193 1.42877,4.779857 5.55106,7.176009 2.58734,1.503941 6.13652,3.814984 7.88706,5.135652 l 3.1828,2.401213 14.3172,-10.269645 c 13.21724,-9.480651 35.37183,-25.62784 38.75916,-28.24929 2.36271,-1.828498 0.5744,0.714962 -11.51965,16.38407 -6.15542,7.975 -13.88369,18.057493 -17.17392,22.40554 l -5.98223,7.905541 3.87228,5.094459 c 5.38286,7.081824 11.19625,18.6204 14.15459,28.09446 3.87185,12.39955 5.06552,22.04237 4.43045,35.79053 -0.69661,15.08029 -3.66407,26.16974 -10.74315,40.14736 -4.30404,8.4983 -4.83117,10.13984 -3.63898,11.33203 1.19218,1.19219 1.69141,0.91147 3.44633,-1.93789 20.73996,-33.67438 20.84269,-74.77099 0.27393,-109.58203 -2.68715,-4.54778 -2.86328,-5.25 -1.3168,-5.25 2.22783,0 10.83744,13.54319 15.1717,23.86555 10.84182,25.82063 9.11481,59.06125 -4.44965,85.64459 l -4.08825,8.01205 11.5607,3.38724 c 6.35838,1.86298 12.23569,3.7568 13.06069,4.20849 0.825,0.4517 -53.175,0.82126 -120,0.82126 -66.825,0 -120.825,-0.36383 -120,-0.80851 z m 56.01744,-6.60966 c -0.963087,-1.16045 -1.689431,-1.23896 -3.372445,-0.36454 C 84.34124,210.87295 84.397118,211 88.455778,211 c 3.23079,0 3.608248,-0.21793 2.561662,-1.47899 z M 225,210.53518 c 0,-0.25565 -0.85275,-0.92119 -1.89499,-1.47898 -1.40699,-0.753 -2.2111,-0.6333 -3.12245,0.46481 C 218.94382,210.77262 219.23515,211 221.87756,211 223.5949,211 225,210.79083 225,210.53518 Z m -1.53616,-14.00487 c -9.33645,-10.00005 -10.95695,-11.33677 -12.64697,-10.4323 -1.06612,0.57057 -1.79856,1.42465 -1.62764,1.89796 0.26544,0.73502 23.69889,19.67133 24.64698,19.91693 0.18491,0.0479 -4.48266,-5.07426 -10.37237,-11.38259 z M 92.046829,193.64683 c -1.127477,-1.12748 -7.332649,4.24275 -11.363197,9.83421 -1.595352,2.21319 -0.273429,1.46577 5.132077,-2.90168 5.084266,-4.10789 6.964202,-6.19945 6.23112,-6.93253 z M 72.098371,190.82116 C 65.349014,176.87701 63.643926,168.94673 63.643926,151.5 c 0,-12.32603 0.390078,-16.42612 2.188192,-23 2.565276,-9.37861 8.813488,-22.88699 13.606108,-29.415848 2.881806,-3.925804 3.195018,-4.865235 2.114689,-6.342673 -1.138756,-1.557342 -1.691623,-1.130624 -5.418109,4.181847 C 70.501861,104.95364 64.477607,117.83011 61.829517,127.5 c -1.806896,6.59815 -2.196059,10.71609 -2.220844,23.5 -0.03566,18.39297 1.798933,26.89899 9.032568,41.87916 4.031172,8.34817 4.694341,9.21383 6.033036,7.87513 1.338694,-1.33869 1.055543,-2.43057 -2.575906,-9.93313 z m 70.210709,8.13848 C 151.89234,195.34802 158,188.20595 158,180.61127 158,177.47954 155.97258,174 154.14781,174 c -0.39013,0 -1.23861,1.4022 -1.88549,3.116 -1.17524,3.11356 -1.17453,3.11454 0.91366,1.25 2.06764,-1.8462 2.08157,-1.83955 1.31268,0.62616 -0.69595,2.23175 -0.60534,2.34957 0.86709,1.12755 4.13186,-3.42913 0.55051,6.752 -3.96575,11.27391 -5.22407,5.23062 -11.83531,7.58562 -21.32611,7.59661 -24.3317,0.0282 -44.563676,-12.85384 -46.703789,-29.73703 L 82.757586,164.5 85.809758,169 c 3.598721,5.30581 10.14979,11.85422 8.320694,8.31732 -0.620822,-1.20048 -1.60129,-3.45048 -2.178818,-5 -0.993718,-2.66617 -0.890081,-2.62526 1.931744,0.76257 1.639988,1.96894 4.699632,4.885 6.799212,6.48013 l 3.81741,2.90023 -1.82712,-2.81264 c -1.61489,-2.48595 -0.91799,-2.20606 6,2.40966 7.48906,4.99674 7.67783,5.06463 4.37062,1.57185 l -3.4565,-3.65044 7.37532,2.5085 c 7.32915,2.49281 10.19161,2.73593 6.03768,0.51282 -3.42912,-1.83521 -1.84246,-2.05781 3.40696,-0.47796 4.43216,1.33388 4.70646,1.31954 3.46118,-0.18092 -1.18387,-1.42648 -1.10413,-1.56089 0.6397,-1.07831 6.53611,1.80877 7.16612,1.74818 8.32759,-0.80096 l 1.13909,-2.50003 -3.23726,1.65589 -3.23726,1.6559 1.96906,-2.38681 c 1.08298,-1.31274 3.318,-3.85884 4.9667,-5.65799 l 2.99765,-3.27119 -5.96671,3.10512 -5.9667,3.10511 6.27661,-6.08392 6.27661,-6.08393 -5.77661,-0.0781 -5.77661,-0.0781 6.31272,-2.19454 6.31272,-2.19453 -4.31272,-2.23157 -4.31272,-2.23157 4.85133,0.26945 4.85133,0.26944 -4.85133,-4.2296 -4.85133,-4.2296 4.70404,1.40267 4.70403,1.40267 -3.45403,-4.80776 c -3.97322,-5.53044 -4.44981,-7.29017 -1.20404,-4.44577 5.86564,5.1403 6.10541,5.02389 2.86675,-1.39185 C 142.3867,135.80408 141.18703,133 141.45081,133 c 0.26378,0 2.07026,1.39662 4.01439,3.10359 1.94414,1.70698 3.5348,2.90243 3.5348,2.65655 0,-0.24587 -0.9,-3.06293 -2,-6.26014 -2.64015,-7.67373 -2.48116,-8.88256 0.52609,-4 l 2.46366,4 0.10074,-7.5 0.10074,-7.5 1.65437,4.98963 1.65437,4.98963 1.00001,-8.48963 L 155.5,110.5 152,109.80763 c -1.925,-0.3808 -5.2625,-0.7183 -7.41667,-0.75 -4.82826,-0.071 -3.98228,-1.16988 1.68524,-2.18896 2.38959,-0.42967 -2.51536,-0.58497 -11.26857,-0.35679 -8.525,0.22224 -16.85,0.65282 -18.5,0.95685 -1.65,0.30402 -0.525,-0.39612 2.5,-1.55587 3.57723,-1.37147 8.99594,-2.319 15.5,-2.71038 l 10,-0.60174 -7.5,-1.23761 c -4.125,-0.68069 -12.2962,-1.26585 -18.15822,-1.30037 L 108.18355,100 l -4.38221,4.25902 C 89.28319,118.36905 79,140.87338 79,158.53573 c 0,12.23172 2.75856,19.38071 10.453448,27.09081 13.976252,14.00389 36.200192,19.60999 52.855632,13.3331 z M 241.96667,192.75 c 6.40101,-12.99563 9.2544,-25.62689 9.31832,-41.25 0.0824,-20.13063 -4.97098,-37.38735 -15.60339,-53.284115 -4.50509,-6.73567 -5.13842,-7.311632 -6.29724,-5.726845 -1.11015,1.518213 -0.72587,2.590371 2.77748,7.74927 17.53462,25.82088 19.98644,61.54724 6.23492,90.85124 -3.3278,7.09142 -3.7221,9.91045 -1.38618,9.91045 0.4909,0 2.72114,-3.7125 4.95609,-8.25 z m -49.24816,-2.17575 c 11.65532,-3.07461 21.72133,-10.92472 26.00418,-20.2797 C 221.4991,164.23008 223.11303,152 221.13691,152 220.44043,152 220,153.92243 220,156.96249 c 0,22.77705 -28.49899,40.10833 -51.83862,31.52494 l -3.66138,-1.34651 5,-0.11556 5,-0.11557 -3,-1.37368 -3,-1.37367 5,-0.0965 c 3.61765,-0.0699 4.58529,-0.36454 3.5,-1.06591 -1.0566,-0.68283 0.4214,-0.98723 5,-1.02979 6.31972,-0.0587 6.41679,-0.0985 3.5,-1.4341 -2.96077,-1.35571 -2.92154,-1.3758 3,-1.53647 l 6,-0.16279 -3.43333,-1.4961 c -4.27,-1.86069 -2.64717,-3.30273 3.74235,-3.32544 4.9835,-0.0177 4.82533,-1.48612 -0.2629,-2.44068 -5.49607,-1.03107 -4.99995,-2.25974 1.22333,-3.02966 3.1518,-0.38993 6.63055,-1.09044 7.73055,-1.55668 1.69021,-0.71641 1.51596,-0.85861 -1.125,-0.918 -8.05089,-0.18108 -12.5358,-2.96724 -5.06598,-3.14714 1.75504,-0.0423 4.99098,-0.67009 7.19098,-1.39515 l 4,-1.31829 -4.5,-0.11463 c -8.31862,-0.21188 -18.36966,-6.61592 -20.901,-13.31712 -0.62665,-1.65893 -0.90294,-11.04067 -0.70742,-24.02158 0.26347,-17.49227 0.61924,-21.87661 1.9903,-24.527959 1.86902,-3.614285 3.05081,-4.27854 2.18551,-1.228421 -0.31207,1.1 -0.83557,2.940512 -1.16335,4.09003 -0.43376,1.52118 0.38349,1.04487 3.00267,-1.750004 L 192.00534,95.5 l -1.61609,4 -1.61609,4 2.07918,-1.874 c 2.07623,-1.871341 2.07781,-1.869227 1.11342,1.4934 -1.19218,4.15688 -1.21432,5.15225 -0.0992,4.4631 1.40892,-0.87076 -0.57507,7.78532 -3.23037,14.09405 -3.41591,8.11584 -4.01602,12.2534 -2.52574,17.41422 l 1.27325,4.40923 0.69038,-7.07187 c 0.5504,-5.63802 2.99558,-13.44974 4.20165,-13.42319 0.12338,0.003 0.34505,2.08238 0.49261,4.62147 0.14756,2.5391 0.74002,5.34938 1.31657,6.24506 0.8006,1.24375 0.91846,0.80157 0.49885,-1.87147 -0.46307,-2.94983 -0.3739,-3.18562 0.56727,-1.5 0.61419,1.1 2.26567,3.2375 3.66996,4.75 2.14982,2.31549 3.36933,2.75 7.71827,2.75 9.21535,0 14.82737,-5.72825 16.29041,-16.62783 l 0.78822,-5.87217 1.33403,7.15375 c 1.50841,8.08887 0.49769,14.50179 -3.07675,19.52162 -2.84207,3.99132 -10.04473,7.92032 -16.15572,8.81283 l -5.2194,0.76229 5.5,0.10279 c 7.16,0.13382 12.49269,-2.33398 17.61269,-8.15061 7.03256,-7.98941 8.57405,-19.92177 3.80892,-29.48414 -3.5926,-7.20941 -18.64348,-20.388639 -29.15701,-25.531188 -4.10253,-2.006694 -4.35077,-2.016673 -7.91277,-0.318076 l -3.67736,1.753612 1.67689,-2.311439 c 4.20874,-5.801336 3.64494,-6.374856 -4.13927,-4.210652 -5.65341,1.571788 -6.08398,1.902803 -6.69219,5.144814 -0.35751,1.905719 -1.86581,6.680072 -3.35177,10.609672 -2.51892,6.661257 -2.61989,7.516907 -1.49206,12.644727 0.66533,3.025 2.39295,10.9 3.83916,17.5 1.44621,6.6 2.87972,14.9485 3.18558,18.55222 1.21045,14.262 -6.61923,28.92937 -15.45081,28.94404 -1.9515,0.003 -2.25,0.52578 -2.25,3.93864 0,2.1642 -0.44497,5.10525 -0.98881,6.53568 -1.16397,3.06147 -0.9932,3.16334 7.48881,4.46703 7.05151,1.08382 17.08229,0.51914 24.21851,-1.36336 z m -39.72658,-29.61947 c 0.5311,-1.94987 2.50227,-5.34042 4.38037,-7.53455 3.58997,-4.19408 5.69134,-9.88827 5.50612,-14.92023 -0.0739,-2.00845 -0.25853,-2.33897 -0.55852,-1 -1.49879,6.68963 -3.92522,12.38602 -6.38939,15 -4.06374,4.3108 -6.8678,11.35244 -7.42938,18.65687 l -0.48767,6.34313 2.00641,-6.5 c 1.10353,-3.575 2.44095,-8.09535 2.97206,-10.04522 z m 14.85344,9.52188 c 1.64935,-1.38783 3.89579,-4.42533 4.99209,-6.75 3.67611,-7.79501 3.53343,-12.4183 -1.08554,-35.17498 L 167.5,107.60337 l -3.5,-1.97895 -3.5,-1.97895 2.10099,2.42727 c 2.70401,3.12393 2.66832,3.01132 7.02408,22.1622 4.7014,20.67059 4.75104,24.08289 0.49513,34.03405 -3.73242,8.72713 -6.17764,10.89399 -9.20339,8.15573 -1.32602,-1.20003 -1.9433,-3.15096 -2.00276,-6.32971 -0.0776,-4.14885 -0.16878,-4.31874 -0.93901,-1.74969 -1.37201,4.57626 1.8452,10.65468 5.63936,10.65468 0.67768,0 2.58162,-1.1355 4.23097,-2.52334 z m -4.15238,-40.20763 c -0.25354,-0.97297 -0.47766,-0.41903 -0.49804,1.23097 -0.0204,1.65 0.18706,2.44606 0.46099,1.76903 0.27392,-0.67703 0.29059,-2.02703 0.0371,-3 z M 172.98407,88.5 c 1.01583,-3.85 2.1185,-8.624227 2.45038,-10.609392 l 0.60342,-3.609393 -8.76894,-1.698302 c -4.82291,-0.934066 -9.47323,-1.901256 -10.33403,-2.149311 -1.22585,-0.353248 -1.96114,1.230793 -3.39212,7.307694 -1.00485,4.267287 -2.66422,10.195039 -3.68748,13.172781 -1.02326,2.977743 -1.73669,5.537865 -1.5854,5.68916 0.1513,0.151296 4.53996,1.825172 9.75259,3.719723 l 9.47751,3.44464 1.81856,-4.133798 C 170.31877,97.360211 171.96825,92.35 172.98407,88.5 Z m -14.93089,9.627396 c -6.69116,-2.35969 -7.14779,-2.680871 -4.5,-3.165161 L 156.5,94.423251 154,93.653351 c -2.37354,-0.730955 -2.39883,-0.813982 -0.5,-1.64134 1.79727,-0.783106 1.81578,-0.878565 0.18261,-0.941726 -1.25055,-0.04836 -1.65399,-0.616101 -1.2935,-1.820285 0.28813,-0.9625 1.28564,-4.9 2.21669,-8.75 0.93104,-3.85 1.81998,-7.156854 1.9754,-7.348564 0.15543,-0.19171 3.91324,0.435884 8.3507,1.394653 7.77672,1.68026 8.0681,1.845298 8.0681,4.569772 0,2.603877 -4.65255,16.722834 -6.64235,20.15735 -0.73654,1.271319 -1.90921,1.109519 -8.30447,-1.145815 z m -53.63495,0.0049 c 0.5071,-0.820513 -5.180137,-5.853199 -24.898777,-22.033134 -5.919453,-4.857149 -7.795119,-6.060105 -5.457253,-3.5 23.542009,25.779916 26.16841,28.347778 27.99454,27.370456 1.00753,-0.539213 2.0702,-1.366008 2.36149,-1.837322 z m 30.31094,-3.736478 c -0.3323,-0.332291 -1.1948,-0.367818 -1.91667,-0.07895 -0.79773,0.319226 -0.56078,0.556183 0.60417,0.604167 1.05416,0.04342 1.64479,-0.192928 1.3125,-0.52522 z M 237.95965,70.745512 c 0.0305,-0.569769 -18.56458,14.36967 -25.4059,20.411345 -0.57075,0.50403 -0.17391,1.428097 1,2.328562 1.82788,1.402117 2.62799,0.778966 13.1559,-10.246253 6.16531,-6.456541 11.22781,-12.078686 11.25,-12.493654 z M 128,92.519617 c -4.66787,-1.823753 -2.7944,-1.829318 6.66203,-0.01979 4.31088,0.824905 8.38752,1.499905 9.05919,1.5 1.45544,2.04e-4 5.20063,-11.830997 5.5396,-17.499829 l 0.23918,-4 -10,-1.96535 c -5.5,-1.080942 -9.1,-2.163801 -8,-2.406352 1.1,-0.242551 -1.13039,-1.034405 -4.95642,-1.759674 -5.47233,-1.037347 -7.11937,-1.057326 -7.72024,-0.09365 -0.9544,1.530664 -4.62949,17.021232 -5.42525,22.867547 L 112.80498,93.5 l 9.34751,0.193539 c 8.84869,0.183212 9.16074,0.120567 5.84751,-1.173922 z m 60.88342,-14.121803 5.38342,-2.40933 -0.5285,-9.744242 c -0.59891,-11.042571 -2.45133,-20.539659 -3.83899,-19.682035 -0.51259,0.316794 -0.67847,0.986163 -0.36864,1.487487 0.59394,0.961013 3.41637,20.99915 3.44977,24.491988 0.0143,1.492267 -1.47884,2.776549 -5.54855,4.772518 l -5.56806,2.730835 2.81806,-3.742255 2.81807,-3.742255 -3.25,2.287832 c -3.8261,2.693374 -3.92459,2.42473 -1.15051,-3.138195 L 185.19898,67.5 182.71217,70 c -1.71907,1.728193 -2.63906,3.975526 -2.97997,7.279454 -0.56644,5.489589 -0.60527,5.484843 9.15122,1.11836 z M 174.49117,68.98571 c -1.19772,-1.937955 -8.50025,-5.018554 -16.72203,-7.05425 -9.66712,-2.393561 -32.42683,-3.782032 -35.33324,-2.155527 -2.16921,1.213951 -3.71579,0.870792 21.0641,4.673753 8.8,1.350533 17.575,2.766482 19.5,3.146555 1.925,0.380072 3.25339,0.417288 2.95197,0.0827 -0.30142,-0.334585 -7.05142,-1.983841 -15,-3.665012 L 136.5,60.957256 l 9,0.449052 c 10.65806,0.53178 27.91714,5.390961 23.5,6.616269 -2.33508,0.647747 -2.26911,0.725287 1,1.175422 1.925,0.26506 3.86406,0.553944 4.30902,0.641964 0.44496,0.08802 0.52692,-0.296393 0.18215,-0.854253 z m 7.54934,-3.061404 c 1.01635,-1.899075 0.93426,-1.98117 -0.96482,-0.964816 C 179.93406,65.570473 179,66.504535 179,67.035184 c 0,1.716646 1.89848,1.023018 3.04051,-1.110878 z m -1.40576,-5.622894 C 180.43819,60.104859 179.02756,60.419224 177.5,61 c -4.09094,1.555371 -4.11795,0.54503 -0.0526,-1.967492 1.95393,-1.207595 3.5526,-2.423479 3.5526,-2.701965 0,-0.278486 -1.8,-0.202231 -4,0.169457 -4.99316,0.843588 -5.06275,0.137993 -0.25,-2.534846 2.0625,-1.145443 3.04876,-1.878418 2.19169,-1.628833 -2.69453,0.784669 -17.30519,3.572065 -20.44169,3.89983 -2.57051,0.268618 -2.14102,0.559864 3,2.034351 3.3,0.946468 8.025,2.76413 10.5,4.039248 4.49775,2.317236 4.50112,2.317403 6.74606,0.333713 1.23533,-1.091575 2.08524,-2.145498 1.88869,-2.342051 z m -13.74962,-9.443185 c 12.07289,-2.304756 17.78183,-4.367415 19.14675,-6.917791 1.22624,-2.291255 0.53873,-2.717996 -6.46467,-4.012645 -13.34534,-2.467019 -44.16236,5.988104 -45.40406,12.457301 -0.34369,1.790555 0.20733,1.84925 10.98751,1.170391 6.24214,-0.393085 16.02265,-1.606851 21.73447,-2.697256 z M 141.5,48.543825 c 3.85,-1.912237 9.7,-4.175785 13,-5.030108 11.69797,-3.028435 31.23024,-3.204441 30.25296,-0.27261 C 183.45929,47.12212 166.78064,50.790295 147,51.544202 l -12.5,0.476417 z m 31.73133,-3.142701 6.26867,-1.326395 -9.5,0.409 c -5.225,0.22495 -11.525,1.078459 -14,1.896687 l -4.5,1.487687 7.73133,-0.570292 c 4.25224,-0.31366 10.55224,-1.167169 14,-1.896687 z"
       id="path1" />
  </g>
</svg>
