<?xml version="1.0" encoding="UTF-8" standalone="no"?>
<!-- Created with Inkscape (http://www.inkscape.org/) -->

<svg
   width="98.376366mm"
   height="120.31669mm"
   viewBox="0 0 98.376366 120.31669"
   version="1.1"
   id="svg1"
   xml:space="preserve"
   inkscape:version="1.4 (86a8ad7, 2024-10-11)"
   sodipodi:docname="apple.svg"
   xmlns:inkscape="http://www.inkscape.org/namespaces/inkscape"
   xmlns:sodipodi="http://sodipodi.sourceforge.net/DTD/sodipodi-0.dtd"
   xmlns="http://www.w3.org/2000/svg"
   xmlns:svg="http://www.w3.org/2000/svg"><sodipodi:namedview
     id="namedview1"
     pagecolor="#ffffff"
     bordercolor="#000000"
     borderopacity="0.25"
     inkscape:showpageshadow="2"
     inkscape:pageopacity="0.0"
     inkscape:pagecheckerboard="0"
     inkscape:deskcolor="#d1d1d1"
     inkscape:document-units="mm"
     inkscape:zoom="0.97386896"
     inkscape:cx="239.2519"
     inkscape:cy="217.17501"
     inkscape:window-width="1920"
     inkscape:window-height="991"
     inkscape:window-x="-9"
     inkscape:window-y="-9"
     inkscape:window-maximized="1"
     inkscape:current-layer="svg1" /><defs
     id="defs1"><inkscape:path-effect
       effect="bspline"
       id="path-effect3"
       is_visible="true"
       lpeversion="1.3"
       weight="33.333333"
       steps="2"
       helper_size="0"
       apply_no_weight="true"
       apply_with_weight="true"
       only_selected="false"
       uniform="false" /><inkscape:path-effect
       effect="bspline"
       id="path-effect2"
       is_visible="true"
       lpeversion="1.3"
       weight="33.333333"
       steps="2"
       helper_size="0"
       apply_no_weight="true"
       apply_with_weight="true"
       only_selected="false"
       uniform="false" /><inkscape:path-effect
       effect="bspline"
       id="path-effect1"
       is_visible="true"
       lpeversion="1.3"
       weight="33.333333"
       steps="2"
       helper_size="0"
       apply_no_weight="true"
       apply_with_weight="true"
       only_selected="false"
       uniform="false" /></defs><g
     inkscape:groupmode="layer"
     id="layer2"
     inkscape:label="LogoManual"
     transform="translate(-55.232701,-82.678653)"><path
       style="fill:#000000;stroke-width:0.264583"
       d="m 102.546,117.9147 c -2.15321,-1.00057 -6.459648,-3.0017 -9.013101,-4.0663 -2.553453,-1.06461 -3.353889,-1.19268 -4.346462,-1.33676 -0.992574,-0.14408 -2.177219,-0.30417 -3.377912,-0.36821 -1.200692,-0.064 -2.417355,-0.032 -3.610041,0.096 -1.192686,0.12806 -2.361325,0.35218 -3.425937,0.61634 -1.064611,0.26415 -2.025137,0.56832 -2.921652,0.87249 -0.896515,0.30418 -1.728969,0.60835 -3.089756,1.31276 -1.360788,0.7044 -3.249822,1.80901 -4.978814,3.12977 -1.728993,1.32076 -3.29785,2.8576 -4.658631,4.60261 -1.36078,1.745 -2.513411,3.69807 -3.626051,6.10746 -1.11264,2.40939 -2.185225,5.27495 -2.897632,8.16461 -0.712406,2.88967 -1.064598,5.80326 -1.240697,8.58086 -0.1761,2.7776 -0.1761,5.41904 0.04803,8.3007 0.224131,2.88166 0.672375,6.00336 1.392793,9.1892 0.720417,3.18583 1.712961,6.43561 2.75356,9.24522 1.0406,2.80961 2.129196,5.17891 3.289864,7.44421 1.160668,2.2653 2.39334,4.42648 4.098327,6.87589 1.704986,2.44942 3.882171,5.18691 5.274966,6.9319 1.392794,1.745 2.001128,2.49741 2.969689,3.45796 0.968562,0.96056 2.297286,2.1292 3.289853,2.94566 0.992567,0.81647 1.648926,1.28072 2.40136,1.67295 0.752434,0.39222 1.600898,0.7124 2.569456,0.94453 0.968559,0.23213 2.057153,0.37621 3.449957,0.28015 1.392805,-0.0961 3.089732,-0.43224 4.818726,-0.89651 1.728994,-0.46426 3.489958,-1.05659 4.722664,-1.57689 1.232705,-0.5203 1.937087,-0.96854 2.977689,-1.33675 1.040601,-0.36821 2.417351,-0.65637 3.650061,-0.81647 1.23271,-0.16009 2.3213,-0.19213 3.57803,-0.16011 1.25672,0.032 2.6815,0.12806 4.29843,0.48027 1.61693,0.35221 3.42592,0.96054 4.91477,1.54487 1.48886,0.58434 2.6575,1.14464 4.01028,1.68896 1.35278,0.54431 2.88962,1.0726 4.65864,1.14464 1.76902,0.072 3.77011,-0.31218 5.58715,-0.93654 1.81705,-0.62436 3.44994,-1.48883 4.84274,-2.50542 1.3928,-1.01659 2.54542,-2.18522 3.85818,-3.63406 1.31276,-1.44884 2.78557,-3.17778 4.41851,-5.36305 1.63294,-2.18526 3.42592,-4.8267 4.94679,-7.53226 1.52087,-2.70555 2.76955,-5.47506 3.62604,-7.48421 0.85649,-2.00915 1.32075,-3.25784 1.57689,-3.95423 0.25615,-0.69639 0.30417,-0.84045 0.0961,-0.94452 -0.20812,-0.10407 -0.67237,-0.16811 -1.38479,-0.4963 -0.71241,-0.32819 -1.67294,-0.92051 -2.91365,-1.86506 -1.24072,-0.94455 -2.76155,-2.24126 -4.32245,-3.84218 -1.5609,-1.60092 -3.16177,-3.50596 -4.46652,-5.66721 -1.30475,-2.16125 -2.3133,-4.57857 -2.76155,-7.25211 -0.44825,-2.67354 -0.33619,-5.60314 -0.12807,-8.18062 0.20812,-2.57748 0.51229,-4.80269 1.44083,-7.09201 0.92854,-2.28932 2.48138,-4.64261 3.75411,-6.31556 1.27274,-1.67296 2.26528,-2.6655 3.25785,-3.53 0.99257,-0.86449 1.98511,-1.60089 2.77756,-2.07316 0.79246,-0.47227 1.38478,-0.68038 1.71295,-0.80045 0.32816,-0.12006 0.39221,-0.1521 -0.1681,-0.74446 -0.56032,-0.59236 -1.74496,-1.74499 -3.33788,-3.01773 -1.59293,-1.27273 -3.59402,-2.66549 -5.02684,-3.61804 -1.43282,-0.95254 -2.29729,-1.46482 -3.56202,-1.97711 -1.26473,-0.5123 -2.92964,-1.02458 -4.70666,-1.43281 -1.77703,-0.40824 -3.66606,-0.7124 -5.57916,-0.79244 -1.9131,-0.08 -3.85016,0.064 -5.37903,0.26415 -1.52888,0.20011 -2.64949,0.45625 -3.98626,0.76843 -1.33678,0.31218 -2.88962,0.68038 -4.32245,1.16866 -1.43282,0.48829 -2.74554,1.09662 -3.85017,1.5849 -1.10463,0.48828 -2.00112,0.85648 -2.93766,1.36878 -0.93654,0.51229 -1.91307,1.16865 -2.40135,1.49683 -0.48828,0.32819 -0.48828,0.32832 -2.6415,-0.67224 z"
       id="path2"
       inkscape:path-effect="#path-effect2"
       inkscape:original-d="m 104.69922,118.91526 c -4.30643,-2.00113 -8.612868,-4.00226 -12.919306,-6.00339 -0.800467,-0.12808 -1.600903,-0.25615 -2.401358,-0.38422 -1.184693,-0.16009 -2.369338,-0.32018 -3.55401,-0.48027 -1.216713,0.032 -2.433376,0.064 -3.650065,0.096 -1.168683,0.22413 -2.337321,0.44826 -3.505983,0.67238 -0.960562,0.30418 -1.921087,0.60835 -2.88163,0.91252 -0.832488,0.30418 -1.664941,0.60835 -2.497413,0.91252 -1.889106,1.10464 -3.778136,2.20925 -5.667205,3.31387 -1.568918,1.5369 -3.137776,3.07374 -4.706662,4.61061 -1.152676,1.95314 -2.305304,3.90621 -3.457956,5.85931 -1.072629,2.86568 -2.145213,5.73124 -3.217821,8.59686 -0.352205,2.91371 -0.704397,5.8273 -1.056597,8.74095 0,2.64155 0,5.28299 0,7.92448 0.448262,3.12183 0.896506,6.24353 1.34476,9.3653 0.992582,3.2499 1.985124,6.49968 2.977685,9.74951 1.088638,2.36939 2.177232,4.73869 3.265847,7.10802 1.232723,2.16127 2.465395,4.32245 3.698092,6.48367 2.177275,2.73761 4.354462,5.4751 6.531694,8.21265 0.608357,0.75244 1.21669,1.50485 1.825033,2.25727 1.32878,1.16869 2.657504,2.33733 3.986255,3.50599 0.656383,0.46427 1.312743,0.92852 1.969113,1.39278 0.848498,0.32019 1.696961,0.64037 2.54544,0.96055 1.088639,0.14408 2.177233,0.28816 3.265847,0.43224 1.696996,-0.33619 3.393922,-0.67238 5.09088,-1.00857 1.761032,-0.59234 3.521993,-1.18467 5.282988,-1.777 0.704414,-0.44827 1.408798,-0.89651 2.113196,-1.34476 1.376806,-0.28817 2.753556,-0.57633 4.130336,-0.86449 1.08864,-0.032 2.17723,-0.064 3.26585,-0.0961 1.42483,0.0961 2.84961,0.19211 4.27441,0.28817 1.80906,0.60835 3.61805,1.21668 5.42707,1.82503 1.16869,0.56033 2.33733,1.12063 3.50599,1.68095 1.5369,0.52831 3.07374,1.0566 4.61061,1.5849 2.00117,-0.38423 4.00226,-0.76844 6.00339,-1.15266 1.63296,-0.8645 3.26585,-1.72897 4.89877,-2.59346 1.15268,-1.16869 2.30531,-2.33732 3.45796,-3.50599 1.47286,-1.72901 2.94567,-3.45795 4.4185,-5.18693 1.79305,-2.64155 3.58603,-5.28299 5.37904,-7.92448 1.24873,-2.76962 2.49741,-5.53913 3.74612,-8.3087 0.46427,-1.24873 0.92853,-2.49742 1.39279,-3.74612 0.048,-0.14409 0.096,-0.28816 0.14408,-0.43225 -0.46427,-0.064 -0.92852,-0.12807 -1.39279,-0.1921 -0.96056,-0.59235 -1.92109,-1.18467 -2.88163,-1.77701 -1.52089,-1.29676 -3.04172,-2.59347 -4.56258,-3.8902 -1.60094,-1.90511 -3.20181,-3.81015 -4.80272,-5.71523 -1.00859,-2.41742 -2.01714,-4.83474 -3.02571,-7.25211 0.11207,-2.92971 0.22413,-5.85931 0.33619,-8.78897 0.30418,-2.2253 0.60835,-4.45051 0.91252,-6.67577 1.55291,-2.35338 3.10576,-4.70666 4.65863,-7.06 0.99259,-0.99258 1.98513,-1.98512 2.97769,-2.97768 0.99258,-0.73643 1.98512,-1.47283 2.97768,-2.20925 0.59235,-0.20812 1.18467,-0.41623 1.77701,-0.62435 0.064,-0.032 0.12807,-0.064 0.19211,-0.0961 -1.1847,-1.15267 -2.36934,-2.3053 -3.55401,-3.45795 -2.00118,-1.39282 -4.00227,-2.78558 -6.0034,-4.17837 -0.86451,-0.5123 -1.72898,-1.02457 -2.59347,-1.53687 -1.66497,-0.5123 -3.32988,-1.02457 -4.99482,-1.53687 -1.88911,-0.30417 -3.77814,-0.60834 -5.66721,-0.91251 -1.93713,0.14408 -3.87419,0.28816 -5.81129,0.43224 -1.12065,0.25615 -2.24126,0.51229 -3.3619,0.76844 -1.55291,0.36821 -3.10575,0.73641 -4.65863,1.10462 -1.31277,0.60836 -2.62549,1.21669 -3.93823,1.82503 -0.89652,0.36822 -1.79301,0.73642 -2.68952,1.10463 -0.97657,0.65639 -1.9531,1.31274 -2.92966,1.96911 z" /><path
       style="fill:#000000;stroke-width:0.264583"
       d="m 95.105919,114.3218 c 1.069752,0.35093 3.209253,1.05277 4.743138,1.59048 1.533883,0.53772 2.462113,0.91127 3.316783,1.10372 0.85468,0.19245 1.63575,0.20379 2.44515,0.0906 0.8094,-0.1132 1.64707,-0.35092 2.45081,-0.61694 0.80373,-0.26603 1.57348,-0.56035 2.34326,-0.84901 0.76977,-0.28867 1.53953,-0.57167 2.37722,-0.87731 0.8377,-0.30565 1.74329,-0.63393 1.87346,0.17548 0.13018,0.80941 -0.51505,2.75643 -4.4149,3.8375 -3.89985,1.08108 -11.054021,1.29616 -15.157572,0.37921 -4.10355,-0.91695 -5.156298,-2.96585 -4.822339,-4.01863 0.333959,-1.05277 2.054581,-1.10937 2.914909,-1.13767 0.860329,-0.0283 0.860329,-0.0283 1.930081,0.32258 z"
       id="path3"
       inkscape:path-effect="#path-effect3"
       inkscape:original-d="m 94.036167,113.97088 c 2.139503,0.70185 4.279003,1.4037 6.418503,2.10554 0.92827,0.37358 1.8565,0.74713 2.78475,1.1207 0.7811,0.0113 1.56217,0.0226 2.34326,0.034 0.83771,-0.23773 1.67538,-0.47545 2.51307,-0.71317 0.76978,-0.29433 1.53953,-0.58865 2.3093,-0.88297 0.76978,-0.28301 1.53954,-0.566 2.3093,-0.84901 0.90563,-0.32829 1.81122,-0.65656 2.71683,-0.98485 -0.64526,1.9471 -1.2905,3.89412 -1.93574,5.84118 -7.15445,0.21509 -14.308621,0.43016 -21.462933,0.64525 -1.052791,-2.04898 -2.105541,-4.09788 -3.15831,-6.14683 1.720691,-0.0566 3.441313,-0.11319 5.16197,-0.1698 z" /><path
       style="fill:#000000;stroke-width:0.264583"
       d="m 104.1389,110.11829 c 0,-0.31218 0.016,-0.82447 0.048,-1.4088 0.032,-0.58434 0.08,-1.2407 0.21612,-2.22527 0.13608,-0.98457 0.36021,-2.29729 0.74443,-3.72211 0.38423,-1.42482 0.92852,-2.961658 1.46483,-4.218379 0.53631,-1.256721 1.0646,-2.233253 1.72098,-3.257844 0.65638,-1.024591 1.4408,-2.097172 2.41737,-3.185799 0.97656,-1.088628 2.1452,-2.193233 3.43394,-3.201814 1.28875,-1.008581 2.69751,-1.921074 4.19438,-2.72954 1.49686,-0.808465 3.08172,-1.512848 4.76269,-2.097184 1.68097,-0.584336 3.45794,-1.04859 4.32244,-1.27272 0.8645,-0.22413 0.81649,-0.208128 0.73642,0.696409 -0.0801,0.904538 -0.19213,2.697519 -0.44828,4.490549 -0.25614,1.793031 -0.65636,3.586011 -1.22469,5.403057 -0.56833,1.817046 -1.30473,3.658051 -2.37735,5.507113 -1.07262,1.849062 -2.48139,3.706082 -4.01828,5.202932 -1.53688,1.49686 -3.20179,2.63348 -5.1149,3.56201 -1.9131,0.92854 -4.07428,1.64893 -5.92334,2.1132 -1.84906,0.46426 -3.3859,0.67237 -4.16233,0.7204 -0.77644,0.048 -0.79244,-0.064 -0.79244,-0.37621 z"
       id="path1"
       inkscape:path-effect="#path-effect1"
       inkscape:original-d="m 104.1229,110.3184 c 0.016,-0.51229 0.032,-1.02458 0.048,-1.53687 0.048,-0.65638 0.0961,-1.31274 0.14408,-1.96911 0.22414,-1.31277 0.44826,-2.62549 0.67239,-3.93823 0.54431,-1.5369 1.08861,-3.073739 1.63292,-4.610608 0.52831,-0.976572 1.0566,-1.953104 1.5849,-2.929657 0.78446,-1.072629 1.56888,-2.145213 2.35333,-3.21782 1.16868,-1.104646 2.33732,-2.20925 3.50598,-3.313875 1.40883,-0.912535 2.81759,-1.825032 4.22639,-2.737548 1.58493,-0.704411 3.16979,-1.408796 4.75469,-2.113196 1.77704,-0.464272 3.55401,-0.928523 5.33101,-1.392788 -0.048,0.01601 -0.096,0.03202 -0.14408,0.04803 -0.11206,1.793049 -0.22412,3.58603 -0.33619,5.379042 -0.40023,1.79305 -0.80045,3.58603 -1.20068,5.379043 -0.73643,1.841079 -1.47283,3.682084 -2.20925,5.523124 -1.40882,1.857083 -2.81759,3.714103 -4.22639,5.571153 -1.66497,1.13666 -3.32988,2.27328 -4.99482,3.40992 -2.16127,0.72043 -4.32245,1.44082 -6.48367,2.16123 -1.5369,0.20812 -3.07374,0.41623 -4.61061,0.62435 -0.016,-0.11206 -0.032,-0.22413 -0.048,-0.33619 z" /></g></svg>
