<?xml version="1.0" encoding="UTF-8" standalone="no"?>
<!-- Created with Inkscape (http://www.inkscape.org/) -->

<svg
   version="1.1"
   id="svg1"
   width="483.57983"
   height="482.25964"
   viewBox="0 0 483.57983 482.25964"
   sodipodi:docname="logoEscalada.png"
   inkscape:version="1.4 (86a8ad7, 2024-10-11)"
   xmlns:inkscape="http://www.inkscape.org/namespaces/inkscape"
   xmlns:sodipodi="http://sodipodi.sourceforge.net/DTD/sodipodi-0.dtd"
   xmlns="http://www.w3.org/2000/svg"
   xmlns:svg="http://www.w3.org/2000/svg">
  <defs
     id="defs1">
    <inkscape:path-effect
       effect="bspline"
       id="path-effect11"
       is_visible="true"
       lpeversion="1.3"
       weight="33.333333"
       steps="2"
       helper_size="0"
       apply_no_weight="true"
       apply_with_weight="true"
       only_selected="false"
       uniform="false" />
    <inkscape:path-effect
       effect="bspline"
       id="path-effect10"
       is_visible="true"
       lpeversion="1.3"
       weight="33.333333"
       steps="2"
       helper_size="0"
       apply_no_weight="true"
       apply_with_weight="true"
       only_selected="false"
       uniform="false" />
    <inkscape:path-effect
       effect="bspline"
       id="path-effect9"
       is_visible="true"
       lpeversion="1.3"
       weight="33.333333"
       steps="2"
       helper_size="0"
       apply_no_weight="true"
       apply_with_weight="true"
       only_selected="false"
       uniform="false" />
    <inkscape:path-effect
       effect="bspline"
       id="path-effect8"
       is_visible="true"
       lpeversion="1.3"
       weight="33.333333"
       steps="2"
       helper_size="0"
       apply_no_weight="true"
       apply_with_weight="true"
       only_selected="false"
       uniform="false" />
    <inkscape:path-effect
       effect="bspline"
       id="path-effect7"
       is_visible="true"
       lpeversion="1.3"
       weight="33.333333"
       steps="2"
       helper_size="0"
       apply_no_weight="true"
       apply_with_weight="true"
       only_selected="false"
       uniform="false" />
    <inkscape:path-effect
       effect="bspline"
       id="path-effect6"
       is_visible="true"
       lpeversion="1.3"
       weight="33.333333"
       steps="2"
       helper_size="0"
       apply_no_weight="true"
       apply_with_weight="true"
       only_selected="false"
       uniform="false" />
    <inkscape:path-effect
       effect="bspline"
       id="path-effect5"
       is_visible="true"
       lpeversion="1.3"
       weight="33.333333"
       steps="2"
       helper_size="0"
       apply_no_weight="true"
       apply_with_weight="true"
       only_selected="false"
       uniform="false" />
    <inkscape:path-effect
       effect="bspline"
       id="path-effect4"
       is_visible="true"
       lpeversion="1.3"
       weight="33.333333"
       steps="2"
       helper_size="0"
       apply_no_weight="true"
       apply_with_weight="true"
       only_selected="false"
       uniform="false" />
    <inkscape:path-effect
       effect="bspline"
       id="path-effect3"
       is_visible="true"
       lpeversion="1.3"
       weight="33.333333"
       steps="2"
       helper_size="0"
       apply_no_weight="true"
       apply_with_weight="true"
       only_selected="false"
       uniform="false" />
    <inkscape:path-effect
       effect="bspline"
       id="path-effect2"
       is_visible="true"
       lpeversion="1.3"
       weight="33.333333"
       steps="2"
       helper_size="0"
       apply_no_weight="true"
       apply_with_weight="true"
       only_selected="false"
       uniform="false" />
    <inkscape:path-effect
       effect="bspline"
       id="path-effect7-4"
       is_visible="true"
       lpeversion="1.3"
       weight="33.333333"
       steps="2"
       helper_size="0"
       apply_no_weight="true"
       apply_with_weight="true"
       only_selected="false"
       uniform="false" />
    <inkscape:path-effect
       effect="bspline"
       id="path-effect5-8"
       is_visible="true"
       lpeversion="1.3"
       weight="33.333333"
       steps="2"
       helper_size="0"
       apply_no_weight="true"
       apply_with_weight="true"
       only_selected="false"
       uniform="false" />
    <inkscape:path-effect
       effect="bspline"
       id="path-effect6-9"
       is_visible="true"
       lpeversion="1.3"
       weight="33.333333"
       steps="2"
       helper_size="0"
       apply_no_weight="true"
       apply_with_weight="true"
       only_selected="false"
       uniform="false" />
    <inkscape:path-effect
       effect="bspline"
       id="path-effect4-3"
       is_visible="true"
       lpeversion="1.3"
       weight="33.333333"
       steps="2"
       helper_size="0"
       apply_no_weight="true"
       apply_with_weight="true"
       only_selected="false"
       uniform="false" />
    <inkscape:path-effect
       effect="bspline"
       id="path-effect3-0"
       is_visible="true"
       lpeversion="1.3"
       weight="33.333333"
       steps="2"
       helper_size="0"
       apply_no_weight="true"
       apply_with_weight="true"
       only_selected="false"
       uniform="false" />
    <inkscape:path-effect
       effect="bspline"
       id="path-effect8-6"
       is_visible="true"
       lpeversion="1.3"
       weight="33.333333"
       steps="2"
       helper_size="0"
       apply_no_weight="true"
       apply_with_weight="true"
       only_selected="false"
       uniform="false" />
    <inkscape:path-effect
       effect="bspline"
       id="path-effect9-5"
       is_visible="true"
       lpeversion="1.3"
       weight="33.333333"
       steps="2"
       helper_size="0"
       apply_no_weight="true"
       apply_with_weight="true"
       only_selected="false"
       uniform="false" />
    <inkscape:path-effect
       effect="bspline"
       id="path-effect10-1"
       is_visible="true"
       lpeversion="1.3"
       weight="33.333333"
       steps="2"
       helper_size="0"
       apply_no_weight="true"
       apply_with_weight="true"
       only_selected="false"
       uniform="false" />
    <inkscape:path-effect
       effect="bspline"
       id="path-effect11-7"
       is_visible="true"
       lpeversion="1.3"
       weight="33.333333"
       steps="2"
       helper_size="0"
       apply_no_weight="true"
       apply_with_weight="true"
       only_selected="false"
       uniform="false" />
  </defs>
  <sodipodi:namedview
     id="namedview1"
     pagecolor="#ffffff"
     bordercolor="#000000"
     borderopacity="0.25"
     inkscape:showpageshadow="2"
     inkscape:pageopacity="0.0"
     inkscape:pagecheckerboard="0"
     inkscape:deskcolor="#d1d1d1"
     inkscape:zoom="0.89990278"
     inkscape:cx="101.67765"
     inkscape:cy="188.35368"
     inkscape:window-width="1920"
     inkscape:window-height="991"
     inkscape:window-x="-9"
     inkscape:window-y="-9"
     inkscape:window-maximized="1"
     inkscape:current-layer="layer1" />
  <g
     inkscape:groupmode="layer"
     id="layer1"
     inkscape:label="Image 1"
     transform="translate(-27.48382,-46.752666)">
    <path
       style="fill:#000000"
       d="m 72.682715,98.809205 c 0,0 188.975065,188.975055 188.975065,188.975055 0,0 -188.975065,188.97506 -188.975065,188.97506 0,0 8.054031,8.05404 8.054031,8.05404 0,0 95.469724,0 95.469724,0 0,0 85.64774,44.19894 85.64774,44.19894 0,0 196.24334,-44.59182 196.24334,-44.59182 0,0 7.66115,-7.8576 7.66115,-7.8576 0,0 -189.36794,-188.38574 -189.36794,-188.38574 0,0 188.77862,-189.367935 188.77862,-189.367935 0,0 -7.26827,-6.875392 -7.26827,-6.875392 0,0 -94.68397,0.19644 -94.68397,0.19644 0,0 -86.82638,-45.377587 -86.82638,-45.377587 0,0 -195.654014,44.002508 -195.654014,44.002508 z"
       id="path2"
       inkscape:path-effect="#path-effect2"
       inkscape:original-d="m 72.682715,98.809205 c 0,0 188.975065,188.975055 188.975065,188.975055 0,0 -188.975065,188.97506 -188.975065,188.97506 0,0 8.054031,8.05404 8.054031,8.05404 0,0 95.469724,0 95.469724,0 0,0 85.64774,44.19894 85.64774,44.19894 0,0 196.24334,-44.59182 196.24334,-44.59182 0,0 7.66115,-7.8576 7.66115,-7.8576 0,0 -189.36794,-188.38574 -189.36794,-188.38574 0,0 188.77862,-189.367935 188.77862,-189.367935 0,0 -7.26827,-6.875392 -7.26827,-6.875392 0,0 -94.68397,0.19644 -94.68397,0.19644 0,0 -86.82638,-45.377587 -86.82638,-45.377587 0,0 -195.654014,44.002508 -195.654014,44.002508 z"
       inkscape:label="negre1" />
    <path
       style="fill:#000000"
       d="m 27.490459,348.08996 c -0.01251,0.83022 -0.03754,2.49066 0.252805,4.13121 0.290339,1.64056 0.896015,3.26115 1.624487,4.85315 0.728472,1.59199 1.579697,3.1553 3.552309,5.6804 1.972611,2.5251 5.066477,6.01184 8.757952,9.66239 3.691474,3.65054 7.980325,7.46467 12.166989,11.0661 4.186664,3.60143 8.270893,6.98995 10.288487,8.69242 2.017593,1.70248 1.968503,1.71884 3.474567,2.17721 1.506065,0.45837 4.567189,1.3587 7.628406,1.2441 3.061216,-0.1146 6.122342,-1.24411 8.651525,-4.14983 2.529183,-2.90572 4.52628,-7.58744 5.6067,-12.33478 1.08042,-4.74734 1.244116,-9.56002 1.358707,-15.28139 0.11459,-5.72138 0.180069,-12.35109 0.114587,-17.53223 -0.06548,-5.18113 -0.261917,-8.91341 -1.03132,-12.13833 -0.769402,-3.22491 -2.111713,-5.94227 -3.92062,-8.02127 -1.808908,-2.07901 -4.08429,-3.51953 -5.983223,-4.55085 -1.898933,-1.03131 -3.421308,-1.65336 -5.361175,-2.05443 -1.939866,-0.40106 -4.297096,-0.58113 -6.883581,-0.51565 -2.586484,0.0655 -5.402066,0.37651 -8.356879,1.01495 -2.954813,0.63844 -6.048678,1.60424 -8.635155,2.80745 -2.586478,1.20321 -4.665423,2.64374 -7.284652,4.60816 -2.61923,1.96443 -5.778569,4.45261 -8.275012,6.90814 -2.496442,2.45552 -4.329844,4.87823 -5.508253,7.02327 -1.178409,2.14504 -1.701769,4.01229 -1.963455,4.94593 -0.261686,0.93365 -0.261684,0.93366 -0.274196,1.76388 z"
       id="path3"
       inkscape:path-effect="#path-effect3"
       inkscape:original-d="m 27.502971,347.25974 c -0.02502,1.66044 -0.05004,3.32088 -0.07507,4.98133 0.605702,1.62066 1.211379,3.24125 1.817068,4.86188 0.851256,1.56336 1.702478,3.12667 2.553717,4.69 3.093988,3.48687 6.187853,6.97361 9.281779,10.46042 4.289021,3.81428 8.57787,7.62841 12.866805,11.44261 4.084392,3.38866 8.168621,6.77718 12.252931,10.16576 -0.04911,0.0164 -0.09822,0.0327 -0.14733,0.0491 3.061248,0.90037 6.122373,1.8007 9.183559,2.70105 3.061248,-1.12955 6.122373,-2.25906 9.18356,-3.38859 1.997177,-4.68191 3.994275,-9.36363 5.991413,-14.04544 0.163703,-4.81287 0.327399,-9.62555 0.491099,-14.43832 0.06548,-6.62998 0.13096,-13.25969 0.19644,-19.88953 -0.196444,-3.73243 -0.39288,-7.46471 -0.589319,-11.19707 -1.342366,-2.71747 -2.684677,-5.43483 -4.027016,-8.15225 -2.275473,-1.44059 -4.550854,-2.88112 -6.826282,-4.32167 -1.522438,-0.62208 -3.044816,-1.24412 -4.567224,-1.86618 -2.357325,-0.18008 -4.714555,-0.36014 -7.071832,-0.54021 -2.815693,0.31103 -5.631274,0.62206 -8.44691,0.93309 -3.093989,0.96585 -6.187853,1.93166 -9.28178,2.89748 -2.079029,1.44059 -4.157975,2.88112 -6.236962,4.32168 -3.15947,2.48829 -6.318813,4.97647 -9.478219,7.46471 -1.833475,2.42281 -3.666876,4.84552 -5.500314,7.26827 -0.523382,1.86733 -1.046743,3.73458 -1.570115,5.60187 z"
       inkscape:label="negre2" />
    <path
       style="fill:#000000"
       d="m 27.490459,348.08996 c -0.01251,0.83022 -0.03754,2.49066 0.252805,4.13121 0.290339,1.64056 0.896015,3.26115 1.624487,4.85315 0.728472,1.59199 1.579697,3.1553 3.552309,5.6804 1.972611,2.5251 5.066477,6.01184 8.757952,9.66239 3.691474,3.65054 7.980325,7.46467 12.166989,11.0661 4.186664,3.60143 8.270893,6.98995 10.288487,8.69242 2.017593,1.70248 1.968503,1.71884 3.474567,2.17721 1.506065,0.45837 4.567189,1.3587 7.628406,1.2441 3.061216,-0.1146 6.122342,-1.24411 8.651525,-4.14983 2.529183,-2.90572 4.52628,-7.58744 5.6067,-12.33478 1.08042,-4.74734 1.244116,-9.56002 1.358707,-15.28139 0.11459,-5.72138 0.180069,-12.35109 0.114587,-17.53223 -0.06548,-5.18113 -0.261917,-8.91341 -1.03132,-12.13833 -0.769402,-3.22491 -2.111713,-5.94227 -3.92062,-8.02127 -1.808908,-2.07901 -4.08429,-3.51953 -5.983223,-4.55085 -1.898933,-1.03131 -3.421308,-1.65336 -5.361175,-2.05443 -1.939866,-0.40106 -4.297096,-0.58113 -6.883581,-0.51565 -2.586484,0.0655 -5.402066,0.37651 -8.356879,1.01495 -2.954813,0.63844 -6.048678,1.60424 -8.635155,2.80745 -2.586478,1.20321 -4.665423,2.64374 -7.284652,4.60816 -2.61923,1.96443 -5.778569,4.45261 -8.275012,6.90814 -2.496442,2.45552 -4.329844,4.87823 -5.508253,7.02327 -1.178409,2.14504 -1.701769,4.01229 -1.963455,4.94593 -0.261686,0.93365 -0.261684,0.93366 -0.274196,1.76388 z"
       id="path3-3"
       inkscape:path-effect="#path-effect3-0"
       inkscape:original-d="m 27.502971,347.25974 c -0.02502,1.66044 -0.05004,3.32088 -0.07507,4.98133 0.605702,1.62066 1.211379,3.24125 1.817068,4.86188 0.851256,1.56336 1.702478,3.12667 2.553717,4.69 3.093988,3.48687 6.187853,6.97361 9.281779,10.46042 4.289021,3.81428 8.57787,7.62841 12.866805,11.44261 4.084392,3.38866 8.168621,6.77718 12.252931,10.16576 -0.04911,0.0164 -0.09822,0.0327 -0.14733,0.0491 3.061248,0.90037 6.122373,1.8007 9.183559,2.70105 3.061248,-1.12955 6.122373,-2.25906 9.18356,-3.38859 1.997177,-4.68191 3.994275,-9.36363 5.991413,-14.04544 0.163703,-4.81287 0.327399,-9.62555 0.491099,-14.43832 0.06548,-6.62998 0.13096,-13.25969 0.19644,-19.88953 -0.196444,-3.73243 -0.39288,-7.46471 -0.589319,-11.19707 -1.342366,-2.71747 -2.684677,-5.43483 -4.027016,-8.15225 -2.275473,-1.44059 -4.550854,-2.88112 -6.826282,-4.32167 -1.522438,-0.62208 -3.044816,-1.24412 -4.567224,-1.86618 -2.357325,-0.18008 -4.714555,-0.36014 -7.071832,-0.54021 -2.815693,0.31103 -5.631274,0.62206 -8.44691,0.93309 -3.093989,0.96585 -6.187853,1.93166 -9.28178,2.89748 -2.079029,1.44059 -4.157975,2.88112 -6.236962,4.32168 -3.15947,2.48829 -6.318813,4.97647 -9.478219,7.46471 -1.833475,2.42281 -3.666876,4.84552 -5.500314,7.26827 -0.523382,1.86733 -1.046743,3.73458 -1.570115,5.60187 z"
       inkscape:label="negre3"
       transform="rotate(180,269.27374,287.83812)" />
    <path
       style="fill:#000000"
       d="m 45.099299,209.63398 c -1.293229,3.24125 -2.27543,6.90813 -1.980753,9.67467 0.294676,2.76655 1.866162,4.63269 3.863322,6.30244 1.99716,1.66975 4.419871,3.14302 6.417025,4.07612 1.997154,0.93309 3.568641,1.32596 6.007802,0.76937 2.43916,-0.5566 5.745832,-2.0626 8.201344,-3.53592 2.455512,-1.47331 4.059738,-2.91384 6.302453,-4.22345 2.242716,-1.30961 5.123776,-2.48823 7.9067,-2.79925 2.782925,-0.31103 5.467546,0.24554 7.415586,0.63842 1.948041,0.39288 3.159394,0.62206 4.829154,0.93309 1.669759,0.31104 3.797814,0.70391 6.629858,0.27828 2.83204,-0.42563 6.36789,-1.66973 9.49458,-3.3886 3.12669,-1.71887 5.84405,-3.9124 7.6775,-5.92592 1.83345,-2.01353 2.78289,-3.84693 3.50317,-6.35157 0.72029,-2.50464 1.21138,-5.68035 1.22775,-8.18498 0.0164,-2.50462 -0.44199,-4.33803 -1.47332,-6.7117 -1.03132,-2.37368 -2.63555,-5.28748 -4.8619,-8.75795 -2.22634,-3.47048 -5.07466,-7.49741 -7.71025,-10.16573 -2.63559,-2.66832 -5.0583,-3.97789 -8.00493,-4.79639 -2.946633,-0.81851 -6.417,-1.1459 -9.674656,-0.88397 -3.257656,0.26192 -6.302411,1.11314 -8.643337,2.42276 -2.340925,1.30962 -3.977888,3.07754 -6.171493,5.25477 -2.193606,2.17724 -4.943705,4.76364 -9.445513,9.24908 -4.501808,4.48544 -10.755013,10.8696 -14.683825,15.4696 -3.928813,4.59999 -5.533039,7.41557 -6.826267,10.65683 z"
       id="path9"
       inkscape:path-effect="#path-effect9"
       inkscape:original-d="m 44.788268,209.20836 c -0.982199,3.66687 -1.964398,7.33375 -2.946597,11.00062 1.57155,1.86622 3.143037,3.73236 4.714555,5.59854 2.422805,1.47332 4.845514,2.94659 7.268271,4.41989 1.57155,0.39289 3.143037,0.78576 4.714555,1.17864 3.306802,-1.50607 6.613472,-3.01208 9.920208,-4.51811 1.604291,-1.44059 3.208517,-2.88112 4.812775,-4.32168 2.881174,-1.17866 5.762233,-2.35728 8.64335,-3.53592 2.68473,0.5566 5.369353,1.11316 8.05403,1.66974 1.211403,0.22919 2.422757,0.45836 3.634136,0.68754 2.12814,0.39289 4.256195,0.78576 6.384293,1.17864 3.535986,-1.24414 7.071836,-2.48824 10.607746,-3.73235 2.71747,-2.19363 5.43483,-4.38716 8.15225,-6.58074 0.94948,-1.83347 1.89892,-3.66687 2.84838,-5.50031 0.49111,-3.17584 0.9822,-6.35155 1.4733,-9.52733 -0.45837,-1.83347 -0.91672,-3.66688 -1.37508,-5.50031 -1.60429,-2.91392 -3.20852,-5.82772 -4.81278,-8.74157 -2.84843,-4.0271 -5.69675,-8.05403 -8.54513,-12.08105 -2.4228,-1.30962 -4.84551,-2.6192 -7.26827,-3.92879 -3.470503,-0.32741 -6.94087,-0.6548 -10.411306,-0.9822 -3.044877,0.85125 -6.089632,1.70247 -9.134449,2.55371 -1.637031,1.768 -3.273996,3.53592 -4.910994,5.30388 -2.750212,2.58651 -5.500314,5.17291 -8.250471,7.75937 -6.253457,6.38442 -12.506665,12.76858 -18.759998,19.15288 -1.60429,2.81569 -3.208516,5.63127 -4.812774,8.44691 z"
       inkscape:label="negre4" />
    <path
       style="fill:#000000"
       d="m 45.099299,209.63398 c -1.293229,3.24125 -2.27543,6.90813 -1.980753,9.67467 0.294676,2.76655 1.866162,4.63269 3.863322,6.30244 1.99716,1.66975 4.419871,3.14302 6.417025,4.07612 1.997154,0.93309 3.568641,1.32596 6.007802,0.76937 2.43916,-0.5566 5.745832,-2.0626 8.201344,-3.53592 2.455512,-1.47331 4.059738,-2.91384 6.302453,-4.22345 2.242716,-1.30961 5.123776,-2.48823 7.9067,-2.79925 2.782925,-0.31103 5.467546,0.24554 7.415586,0.63842 1.948041,0.39288 3.159394,0.62206 4.829154,0.93309 1.669759,0.31104 3.797814,0.70391 6.629858,0.27828 2.83204,-0.42563 6.36789,-1.66973 9.49458,-3.3886 3.12669,-1.71887 5.84405,-3.9124 7.6775,-5.92592 1.83345,-2.01353 2.78289,-3.84693 3.50317,-6.35157 0.72029,-2.50464 1.21138,-5.68035 1.22775,-8.18498 0.0164,-2.50462 -0.44199,-4.33803 -1.47332,-6.7117 -1.03132,-2.37368 -2.63555,-5.28748 -4.8619,-8.75795 -2.22634,-3.47048 -5.07466,-7.49741 -7.71025,-10.16573 -2.63559,-2.66832 -5.0583,-3.97789 -8.00493,-4.79639 -2.946633,-0.81851 -6.417,-1.1459 -9.674656,-0.88397 -3.257656,0.26192 -6.302411,1.11314 -8.643337,2.42276 -2.340925,1.30962 -3.977888,3.07754 -6.171493,5.25477 -2.193606,2.17724 -4.943705,4.76364 -9.445513,9.24908 -4.501808,4.48544 -10.755013,10.8696 -14.683825,15.4696 -3.928813,4.59999 -5.533039,7.41557 -6.826267,10.65683 z"
       id="path9-2"
       inkscape:path-effect="#path-effect9-5"
       inkscape:original-d="m 44.788268,209.20836 c -0.982199,3.66687 -1.964398,7.33375 -2.946597,11.00062 1.57155,1.86622 3.143037,3.73236 4.714555,5.59854 2.422805,1.47332 4.845514,2.94659 7.268271,4.41989 1.57155,0.39289 3.143037,0.78576 4.714555,1.17864 3.306802,-1.50607 6.613472,-3.01208 9.920208,-4.51811 1.604291,-1.44059 3.208517,-2.88112 4.812775,-4.32168 2.881174,-1.17866 5.762233,-2.35728 8.64335,-3.53592 2.68473,0.5566 5.369353,1.11316 8.05403,1.66974 1.211403,0.22919 2.422757,0.45836 3.634136,0.68754 2.12814,0.39289 4.256195,0.78576 6.384293,1.17864 3.535986,-1.24414 7.071836,-2.48824 10.607746,-3.73235 2.71747,-2.19363 5.43483,-4.38716 8.15225,-6.58074 0.94948,-1.83347 1.89892,-3.66687 2.84838,-5.50031 0.49111,-3.17584 0.9822,-6.35155 1.4733,-9.52733 -0.45837,-1.83347 -0.91672,-3.66688 -1.37508,-5.50031 -1.60429,-2.91392 -3.20852,-5.82772 -4.81278,-8.74157 -2.84843,-4.0271 -5.69675,-8.05403 -8.54513,-12.08105 -2.4228,-1.30962 -4.84551,-2.6192 -7.26827,-3.92879 -3.470503,-0.32741 -6.94087,-0.6548 -10.411306,-0.9822 -3.044877,0.85125 -6.089632,1.70247 -9.134449,2.55371 -1.637031,1.768 -3.273996,3.53592 -4.910994,5.30388 -2.750212,2.58651 -5.500314,5.17291 -8.250471,7.75937 -6.253457,6.38442 -12.506665,12.76858 -18.759998,19.15288 -1.60429,2.81569 -3.208516,5.63127 -4.812774,8.44691 z"
       inkscape:label="negre5"
       transform="rotate(180,269.21466,287.65205)" />
    <path
       style="fill:#000000"
       d="m 355.26986,282.29901 c -3.93561,-0.46301 -11.25122,-1.43533 -16.18233,-1.85204 -4.93111,-0.41671 -7.47763,-0.27781 -9.39915,0.16206 -1.92152,0.43987 -3.21793,1.18067 -4.46807,2.26877 -1.25015,1.08809 -2.45396,2.5234 -3.05587,4.12082 -0.60192,1.59741 -0.60192,3.35682 -0.2315,5.16259 0.37041,1.80577 1.11122,3.65778 1.89835,4.95423 0.78713,1.29644 1.62053,2.03725 2.96329,2.63917 1.34276,0.60192 3.19477,1.06493 5.16259,1.08807 1.96783,0.0232 4.05135,-0.39356 6.15808,-0.64822 2.10673,-0.25466 4.23655,-0.34726 6.43589,-0.0694 2.19933,0.27781 4.46805,0.92602 6.66738,1.89836 2.19933,0.97234 4.32915,2.26875 5.99601,3.70411 1.66686,1.43535 2.87067,3.00957 4.02821,4.79219 1.15754,1.78262 2.26875,3.77353 3.05588,5.85711 0.78712,2.08358 1.25013,4.2597 1.57424,6.13492 0.32411,1.87522 0.50931,3.44943 1.04179,5.02369 0.53247,1.57426 1.41218,3.14847 2.33821,4.28286 0.92604,1.13439 1.89835,1.8289 3.03274,2.45397 1.1344,0.62507 2.43081,1.18068 3.98192,1.25012 1.55111,0.0694 3.35682,-0.34725 5.02368,-1.34275 1.66687,-0.99549 3.19478,-2.5697 4.14396,-4.23657 0.94918,-1.66686 1.31958,-3.42628 2.03726,-5.3478 0.71768,-1.92153 1.78259,-4.00504 3.07904,-5.99602 1.29646,-1.99097 2.82437,-3.88929 4.74589,-5.71821 1.92153,-1.82891 4.23655,-3.58833 6.59794,-4.93108 2.36139,-1.34274 4.76901,-2.26875 7.52397,-2.82437 2.75496,-0.55562 5.85708,-0.74082 8.51943,-0.83342 2.66235,-0.0926 4.88476,-0.0926 7.33876,-0.11575 2.454,-0.0231 5.13942,-0.0695 6.99148,-0.27782 1.85206,-0.20836 2.87067,-0.57876 3.44944,-1.13438 0.57877,-0.55562 0.71767,-1.29643 0.67136,-1.7826 -0.0463,-0.48616 -0.2778,-0.71766 -0.83342,-0.97232 -0.55563,-0.25466 -1.43534,-0.53246 -2.17616,-0.69452 -0.74083,-0.16205 -1.34274,-0.20836 -2.8244,-1.20386 -1.48167,-0.99549 -3.84298,-2.94011 -6.04232,-4.95423 -2.19933,-2.01413 -4.23655,-4.09765 -5.78765,-6.08863 -1.55111,-1.99097 -2.61601,-3.88928 -3.68095,-5.90341 -1.06494,-2.01413 -2.12985,-4.14394 -2.80122,-6.25067 -0.67138,-2.10673 -0.94918,-4.19025 -1.08809,-6.43588 -0.1389,-2.24564 -0.1389,-4.65326 -0.1389,-6.41272 0,-1.75946 0,-2.87067 -0.39357,-3.68095 -0.39356,-0.81028 -1.18067,-1.31958 -1.82889,-1.57424 -0.64823,-0.25466 -1.15753,-0.25466 -1.5974,0.0231 -0.43987,0.27782 -0.81027,0.83342 -1.15753,1.5048 -0.34726,0.67138 -0.67136,1.45848 -1.34274,2.56973 -0.67138,1.11124 -1.68999,2.54656 -2.89384,3.98192 -1.20385,1.43535 -2.59286,2.87066 -4.19027,4.28286 -1.59741,1.4122 -3.40313,2.80122 -5.2089,3.95876 -1.80577,1.15754 -3.61148,2.08354 -5.97288,3.17164 -2.36139,1.08809 -5.27831,2.3382 -7.89436,3.26423 -2.61605,0.92604 -4.93107,1.52794 -7.2693,1.99096 -2.33824,0.46301 -4.69956,0.78711 -6.52848,0.94917 -1.82891,0.16205 -3.12532,0.16205 -4.05135,0.1852 -0.92603,0.0231 -1.48164,0.0695 -5.41725,-0.39356 z"
       id="path11"
       inkscape:path-effect="#path-effect11"
       inkscape:original-d="m 358.64986,282.80833 c -7.31561,-0.97233 -14.63122,-1.94466 -21.94682,-2.91698 -2.54662,0.1389 -5.09314,0.2778 -7.63971,0.41671 -1.29647,0.74083 -2.59288,1.48164 -3.88931,2.22246 -1.20386,1.43537 -2.40767,2.87068 -3.6115,4.30602 0,1.75949 0,3.5189 0,5.27835 0.74083,1.85209 1.48164,3.7041 2.22246,5.55616 0.83344,0.74083 1.66684,1.48164 2.50027,2.22246 1.85209,0.46302 3.7041,0.92602 5.55615,1.38904 2.0836,-0.41672 4.16712,-0.83343 6.25068,-1.25014 2.1299,-0.0926 4.25972,-0.1852 6.38958,-0.27781 2.26881,0.64824 4.53753,1.29644 6.80629,1.94466 2.1299,1.29646 4.25972,2.59287 6.38958,3.88931 1.20386,1.57427 2.40767,3.14849 3.6115,4.72273 1.11125,1.991 2.22246,3.98191 3.33369,5.97287 0.46302,2.1762 0.92603,4.35232 1.38904,6.52848 0.18521,1.57428 0.37041,3.14849 0.55562,4.72273 0.87974,1.57428 1.75945,3.14849 2.63917,4.72274 0.97235,0.69453 1.94466,1.38903 2.91698,2.08355 1.29647,0.55563 2.59288,1.11123 3.88931,1.66685 1.80579,-0.41672 3.6115,-0.83342 5.41725,-1.25013 1.52798,-1.57428 3.05589,-3.14849 4.58383,-4.72274 0.37042,-1.75948 0.74082,-3.5189 1.11123,-5.27835 1.06495,-2.0836 2.12986,-4.16711 3.19479,-6.25067 1.52798,-1.89839 3.05589,-3.79671 4.58383,-5.69506 2.31511,-1.75948 4.63013,-3.5189 6.9452,-5.27835 2.40771,-0.92604 4.81533,-1.85205 7.223,-2.77808 3.10225,-0.1852 6.20437,-0.37041 9.30656,-0.55561 2.22251,0 4.44492,0 6.66739,0 2.68553,-0.0463 5.37095,-0.0926 8.05642,-0.13891 1.01865,-0.37041 2.03726,-0.74082 3.05589,-1.11123 0.1389,-0.74083 0.27781,-1.48164 0.41671,-2.22246 -0.23151,-0.23151 -0.46301,-0.46301 -0.69452,-0.69452 -0.87974,-0.27781 -1.75945,-0.55561 -2.63917,-0.83342 -0.60193,-0.0463 -1.20384,-0.0926 -1.80575,-0.13891 -2.36142,-1.94469 -4.72274,-3.8893 -7.0841,-5.83396 -2.0373,-2.0836 -4.07452,-4.16712 -6.11177,-6.25067 -1.06496,-1.8984 -2.12986,-3.79671 -3.19479,-5.69506 -1.06495,-2.12991 -2.12986,-4.25972 -3.19479,-6.38958 -0.27782,-2.0836 -0.55562,-4.16712 -0.83343,-6.25068 0,-2.40771 0,-4.81533 0,-7.223 0,-1.11125 0,-2.22246 0,-3.33369 -0.78713,-0.50933 -1.57424,-1.01863 -2.36136,-1.52795 -0.50933,0 -1.01863,0 -1.52795,0 -0.37041,0.55563 -0.74082,1.11123 -1.11123,1.66685 -0.32411,0.78714 -0.64822,1.57424 -0.97232,2.36137 -1.01865,1.43536 -2.03726,2.87068 -3.05589,4.30602 -1.38907,1.43537 -2.77808,2.87068 -4.16712,4.30602 -1.80578,1.38906 -3.6115,2.77808 -5.41725,4.16711 -1.80579,0.92605 -3.6115,1.85206 -5.41725,2.77808 -2.91704,1.25016 -5.83396,2.50027 -8.75095,3.75041 -2.31511,0.60193 -4.63013,1.20383 -6.94519,1.80575 -2.36141,0.32411 -4.72273,0.64822 -7.0841,0.97232 -1.29646,0 -2.59287,0 -3.88931,0 -0.55562,0.0463 -1.11123,0.0926 -1.66684,0.13891 z"
       inkscape:label="negre6" />
    <path
       style="fill:#000000"
       d="m 355.26986,282.29901 c -3.93561,-0.46301 -11.25122,-1.43533 -16.18233,-1.85204 -4.93111,-0.41671 -7.47763,-0.27781 -9.39915,0.16206 -1.92152,0.43987 -3.21793,1.18067 -4.46807,2.26877 -1.25015,1.08809 -2.45396,2.5234 -3.05587,4.12082 -0.60192,1.59741 -0.60192,3.35682 -0.2315,5.16259 0.37041,1.80577 1.11122,3.65778 1.89835,4.95423 0.78713,1.29644 1.62053,2.03725 2.96329,2.63917 1.34276,0.60192 3.19477,1.06493 5.16259,1.08807 1.96783,0.0232 4.05135,-0.39356 6.15808,-0.64822 2.10673,-0.25466 4.23655,-0.34726 6.43589,-0.0694 2.19933,0.27781 4.46805,0.92602 6.66738,1.89836 2.19933,0.97234 4.32915,2.26875 5.99601,3.70411 1.66686,1.43535 2.87067,3.00957 4.02821,4.79219 1.15754,1.78262 2.26875,3.77353 3.05588,5.85711 0.78712,2.08358 1.25013,4.2597 1.57424,6.13492 0.32411,1.87522 0.50931,3.44943 1.04179,5.02369 0.53247,1.57426 1.41218,3.14847 2.33821,4.28286 0.92604,1.13439 1.89835,1.8289 3.03274,2.45397 1.1344,0.62507 2.43081,1.18068 3.98192,1.25012 1.55111,0.0694 3.35682,-0.34725 5.02368,-1.34275 1.66687,-0.99549 3.19478,-2.5697 4.14396,-4.23657 0.94918,-1.66686 1.31958,-3.42628 2.03726,-5.3478 0.71768,-1.92153 1.78259,-4.00504 3.07904,-5.99602 1.29646,-1.99097 2.82437,-3.88929 4.74589,-5.71821 1.92153,-1.82891 4.23655,-3.58833 6.59794,-4.93108 2.36139,-1.34274 4.76901,-2.26875 7.52397,-2.82437 2.75496,-0.55562 5.85708,-0.74082 8.51943,-0.83342 2.66235,-0.0926 4.88476,-0.0926 7.33876,-0.11575 2.454,-0.0231 5.13942,-0.0695 6.99148,-0.27782 1.85206,-0.20836 2.87067,-0.57876 3.44944,-1.13438 0.57877,-0.55562 0.71767,-1.29643 0.67136,-1.7826 -0.0463,-0.48616 -0.2778,-0.71766 -0.83342,-0.97232 -0.55563,-0.25466 -1.43534,-0.53246 -2.17616,-0.69452 -0.74083,-0.16205 -1.34274,-0.20836 -2.8244,-1.20386 -1.48167,-0.99549 -3.84298,-2.94011 -6.04232,-4.95423 -2.19933,-2.01413 -4.23655,-4.09765 -5.78765,-6.08863 -1.55111,-1.99097 -2.61601,-3.88928 -3.68095,-5.90341 -1.06494,-2.01413 -2.12985,-4.14394 -2.80122,-6.25067 -0.67138,-2.10673 -0.94918,-4.19025 -1.08809,-6.43588 -0.1389,-2.24564 -0.1389,-4.65326 -0.1389,-6.41272 0,-1.75946 0,-2.87067 -0.39357,-3.68095 -0.39356,-0.81028 -1.18067,-1.31958 -1.82889,-1.57424 -0.64823,-0.25466 -1.15753,-0.25466 -1.5974,0.0231 -0.43987,0.27782 -0.81027,0.83342 -1.15753,1.5048 -0.34726,0.67138 -0.67136,1.45848 -1.34274,2.56973 -0.67138,1.11124 -1.68999,2.54656 -2.89384,3.98192 -1.20385,1.43535 -2.59286,2.87066 -4.19027,4.28286 -1.59741,1.4122 -3.40313,2.80122 -5.2089,3.95876 -1.80577,1.15754 -3.61148,2.08354 -5.97288,3.17164 -2.36139,1.08809 -5.27831,2.3382 -7.89436,3.26423 -2.61605,0.92604 -4.93107,1.52794 -7.2693,1.99096 -2.33824,0.46301 -4.69956,0.78711 -6.52848,0.94917 -1.82891,0.16205 -3.12532,0.16205 -4.05135,0.1852 -0.92603,0.0231 -1.48164,0.0695 -5.41725,-0.39356 z"
       id="path11-7"
       inkscape:path-effect="#path-effect11-7"
       inkscape:original-d="m 358.64986,282.80833 c -7.31561,-0.97233 -14.63122,-1.94466 -21.94682,-2.91698 -2.54662,0.1389 -5.09314,0.2778 -7.63971,0.41671 -1.29647,0.74083 -2.59288,1.48164 -3.88931,2.22246 -1.20386,1.43537 -2.40767,2.87068 -3.6115,4.30602 0,1.75949 0,3.5189 0,5.27835 0.74083,1.85209 1.48164,3.7041 2.22246,5.55616 0.83344,0.74083 1.66684,1.48164 2.50027,2.22246 1.85209,0.46302 3.7041,0.92602 5.55615,1.38904 2.0836,-0.41672 4.16712,-0.83343 6.25068,-1.25014 2.1299,-0.0926 4.25972,-0.1852 6.38958,-0.27781 2.26881,0.64824 4.53753,1.29644 6.80629,1.94466 2.1299,1.29646 4.25972,2.59287 6.38958,3.88931 1.20386,1.57427 2.40767,3.14849 3.6115,4.72273 1.11125,1.991 2.22246,3.98191 3.33369,5.97287 0.46302,2.1762 0.92603,4.35232 1.38904,6.52848 0.18521,1.57428 0.37041,3.14849 0.55562,4.72273 0.87974,1.57428 1.75945,3.14849 2.63917,4.72274 0.97235,0.69453 1.94466,1.38903 2.91698,2.08355 1.29647,0.55563 2.59288,1.11123 3.88931,1.66685 1.80579,-0.41672 3.6115,-0.83342 5.41725,-1.25013 1.52798,-1.57428 3.05589,-3.14849 4.58383,-4.72274 0.37042,-1.75948 0.74082,-3.5189 1.11123,-5.27835 1.06495,-2.0836 2.12986,-4.16711 3.19479,-6.25067 1.52798,-1.89839 3.05589,-3.79671 4.58383,-5.69506 2.31511,-1.75948 4.63013,-3.5189 6.9452,-5.27835 2.40771,-0.92604 4.81533,-1.85205 7.223,-2.77808 3.10225,-0.1852 6.20437,-0.37041 9.30656,-0.55561 2.22251,0 4.44492,0 6.66739,0 2.68553,-0.0463 5.37095,-0.0926 8.05642,-0.13891 1.01865,-0.37041 2.03726,-0.74082 3.05589,-1.11123 0.1389,-0.74083 0.27781,-1.48164 0.41671,-2.22246 -0.23151,-0.23151 -0.46301,-0.46301 -0.69452,-0.69452 -0.87974,-0.27781 -1.75945,-0.55561 -2.63917,-0.83342 -0.60193,-0.0463 -1.20384,-0.0926 -1.80575,-0.13891 -2.36142,-1.94469 -4.72274,-3.8893 -7.0841,-5.83396 -2.0373,-2.0836 -4.07452,-4.16712 -6.11177,-6.25067 -1.06496,-1.8984 -2.12986,-3.79671 -3.19479,-5.69506 -1.06495,-2.12991 -2.12986,-4.25972 -3.19479,-6.38958 -0.27782,-2.0836 -0.55562,-4.16712 -0.83343,-6.25068 0,-2.40771 0,-4.81533 0,-7.223 0,-1.11125 0,-2.22246 0,-3.33369 -0.78713,-0.50933 -1.57424,-1.01863 -2.36136,-1.52795 -0.50933,0 -1.01863,0 -1.52795,0 -0.37041,0.55563 -0.74082,1.11123 -1.11123,1.66685 -0.32411,0.78714 -0.64822,1.57424 -0.97232,2.36137 -1.01865,1.43536 -2.03726,2.87068 -3.05589,4.30602 -1.38907,1.43537 -2.77808,2.87068 -4.16712,4.30602 -1.80578,1.38906 -3.6115,2.77808 -5.41725,4.16711 -1.80579,0.92605 -3.6115,1.85206 -5.41725,2.77808 -2.91704,1.25016 -5.83396,2.50027 -8.75095,3.75041 -2.31511,0.60193 -4.63013,1.20383 -6.94519,1.80575 -2.36141,0.32411 -4.72273,0.64822 -7.0841,0.97232 -1.29646,0 -2.59287,0 -3.88931,0 -0.55562,0.0463 -1.11123,0.0926 -1.66684,0.13891 z"
       inkscape:label="negre7"
       transform="rotate(180,269.39103,287.04968)" />
    <path
       style="fill:#ffffff"
       d="m 86.953838,96.885466 c 0,0 12.987514,13.751484 12.987514,13.751484 0,0 114.595708,29.16982 114.595708,29.16982 0,0 53.96417,-84.453568 53.96417,-84.453568 z"
       id="path4"
       inkscape:path-effect="#path-effect4"
       inkscape:original-d="m 86.953838,96.885466 c 0,0 12.987514,13.751484 12.987514,13.751484 0,0 114.595708,29.16982 114.595708,29.16982 0,0 53.96417,-84.453568 53.96417,-84.453568 z"
       inkscape:label="blanc1" />
    <path
       style="fill:#ffffff"
       d="m 220.30158,200.85503 c 0,0 85.00918,-23.33585 85.00918,-23.33585 0,0 -30.55886,-118.346121 -30.55886,-118.346121 0,0 -55.28375,85.564801 -55.28375,85.564801 z"
       id="path6"
       inkscape:path-effect="#path-effect6"
       inkscape:original-d="m 220.30158,200.85503 c 0,0 85.00918,-23.33585 85.00918,-23.33585 0,0 -30.55886,-118.346121 -30.55886,-118.346121 0,0 -55.28375,85.564801 -55.28375,85.564801 z"
       inkscape:label="blanc2" />
    <path
       style="fill:#ffffff"
       d="m 314.20061,179.74164 c 0,0 27.78078,28.33639 27.78078,28.33639 0,0 108.34504,-109.456265 108.34504,-109.456265 0,0 -85.84261,-0.833423 -85.84261,-0.833423 z"
       id="path7"
       inkscape:path-effect="#path-effect7"
       inkscape:original-d="m 314.20061,179.74164 c 0,0 27.78078,28.33639 27.78078,28.33639 0,0 108.34504,-109.456265 108.34504,-109.456265 0,0 -85.84261,-0.833423 -85.84261,-0.833423 z"
       inkscape:label="blanc3" />
    <path
       style="fill:#ffffff"
       d="m 314.20061,179.74164 c 0,0 27.78078,28.33639 27.78078,28.33639 0,0 108.34504,-109.456265 108.34504,-109.456265 0,0 -85.84261,-0.833423 -85.84261,-0.833423 z"
       id="path7-3"
       inkscape:path-effect="#path-effect7-4"
       inkscape:original-d="m 314.20061,179.74164 c 0,0 27.78078,28.33639 27.78078,28.33639 0,0 108.34504,-109.456265 108.34504,-109.456265 0,0 -85.84261,-0.833423 -85.84261,-0.833423 z"
       inkscape:label="blanc4"
       transform="rotate(180,269.11671,287.79125)" />
    <path
       style="fill:#ffffff"
       d="m 197.61841,208.02972 c 0,0 15.42052,-4.12524 15.42052,-4.12524 0,0 -0.0982,-57.26219 -0.0982,-57.26219 0,0 -102.44334,-26.12649 -102.44334,-26.12649 z"
       id="path5"
       inkscape:path-effect="#path-effect5"
       inkscape:original-d="m 197.61841,208.02972 c 0,0 15.42052,-4.12524 15.42052,-4.12524 0,0 -0.0982,-57.26219 -0.0982,-57.26219 0,0 -102.44334,-26.12649 -102.44334,-26.12649 z"
       inkscape:label="blanc5" />
    <path
       style="fill:#ffffff"
       d="m 197.61841,208.02972 c 0,0 15.42052,-4.12524 15.42052,-4.12524 0,0 -0.0982,-57.26219 -0.0982,-57.26219 0,0 -102.44334,-26.12649 -102.44334,-26.12649 z"
       id="path5-1"
       inkscape:path-effect="#path-effect5-8"
       inkscape:original-d="m 197.61841,208.02972 c 0,0 15.42052,-4.12524 15.42052,-4.12524 0,0 -0.0982,-57.26219 -0.0982,-57.26219 0,0 -102.44334,-26.12649 -102.44334,-26.12649 z"
       inkscape:label="blanc6"
       transform="rotate(180,269.16539,287.68387)" />
    <path
       style="fill:#ffffff"
       d="m 220.30158,200.85503 c 0,0 85.00918,-23.33585 85.00918,-23.33585 0,0 -30.55886,-118.346121 -30.55886,-118.346121 0,0 -55.28375,85.564801 -55.28375,85.564801 z"
       id="path6-0"
       inkscape:path-effect="#path-effect6-9"
       inkscape:original-d="m 220.30158,200.85503 c 0,0 85.00918,-23.33585 85.00918,-23.33585 0,0 -30.55886,-118.346121 -30.55886,-118.346121 0,0 -55.28375,85.564801 -55.28375,85.564801 z"
       inkscape:label="blanc7"
       transform="rotate(180,269.51404,286.47193)" />
    <path
       style="fill:#ffffff"
       d="m 86.953838,96.885466 c 0,0 12.987514,13.751484 12.987514,13.751484 0,0 114.595708,29.16982 114.595708,29.16982 0,0 53.96417,-84.453568 53.96417,-84.453568 z"
       id="path4-5"
       inkscape:path-effect="#path-effect4-3"
       inkscape:original-d="m 86.953838,96.885466 c 0,0 12.987514,13.751484 12.987514,13.751484 0,0 114.595708,29.16982 114.595708,29.16982 0,0 53.96417,-84.453568 53.96417,-84.453568 z"
       inkscape:label="blanc8"
       transform="rotate(180,269.02134,287.70146)" />
    <path
       style="fill:#ffffff"
       d="m 42.157335,361.92567 c 5.301499,5.28993 15.395181,14.9669 21.553274,20.33786 6.158094,5.37096 8.380512,6.43587 10.325184,6.06544 1.944673,-0.37043 3.611484,-2.17614 4.977384,-3.93561 1.365901,-1.75947 2.430806,-3.47258 3.055876,-6.71372 0.625069,-3.24114 0.810271,-8.01008 0.902873,-15.21003 0.0926,-7.19994 0.0926,-16.83042 -0.347268,-22.80331 -0.439871,-5.97289 -1.31958,-8.28791 -3.125357,-10.04737 -1.805777,-1.75946 -4.537498,-2.96327 -7.686023,-3.44944 -3.148525,-0.48616 -6.713653,-0.25466 -10.718761,0.92605 -4.005108,1.1807 -8.449941,3.31052 -12.663399,5.92657 -4.213459,2.61606 -8.195293,5.71819 -10.464061,8.8204 -2.268768,3.10222 -2.824373,6.20435 -2.89382,8.36894 -0.06945,2.1646 0.347255,3.39156 0.810274,4.4565 0.463018,1.06494 0.972324,1.9678 6.273824,7.25772 z"
       id="path8"
       inkscape:path-effect="#path-effect8"
       inkscape:original-d="m 37.365148,357.53862 c 10.093683,9.67698 20.187366,19.35395 30.281049,29.03092 2.222506,1.06495 4.444924,2.12986 6.667386,3.19479 1.666881,-1.80579 3.333694,-3.6115 5.000541,-5.41725 1.064951,-1.71319 2.129859,-3.4263 3.194789,-5.13945 0.185209,-4.76913 0.370411,-9.53807 0.555616,-14.3071 0,-9.63086 0,-19.26134 0,-28.89201 -0.879742,-2.31511 -1.75945,-4.63013 -2.639174,-6.94519 -2.731831,-1.20386 -5.463553,-2.40767 -8.19533,-3.61151 -3.565271,0.23152 -7.1304,0.46302 -10.6956,0.69452 -4.445013,2.12991 -8.889849,4.25972 -13.334774,6.38958 -3.981991,3.10225 -7.963823,6.20438 -11.945735,9.30656 -0.555626,3.10225 -1.111231,6.20438 -1.666846,9.30656 0.41672,1.22701 0.833423,2.45397 1.250135,3.68096 0.509324,0.90289 1.018628,1.80575 1.527943,2.70862 z"
       inkscape:label="blanc9" />
    <path
       style="fill:#ffffff"
       d="m 42.157335,361.92567 c 5.301499,5.28993 15.395181,14.9669 21.553274,20.33786 6.158094,5.37096 8.380512,6.43587 10.325184,6.06544 1.944673,-0.37043 3.611484,-2.17614 4.977384,-3.93561 1.365901,-1.75947 2.430806,-3.47258 3.055876,-6.71372 0.625069,-3.24114 0.810271,-8.01008 0.902873,-15.21003 0.0926,-7.19994 0.0926,-16.83042 -0.347268,-22.80331 -0.439871,-5.97289 -1.31958,-8.28791 -3.125357,-10.04737 -1.805777,-1.75946 -4.537498,-2.96327 -7.686023,-3.44944 -3.148525,-0.48616 -6.713653,-0.25466 -10.718761,0.92605 -4.005108,1.1807 -8.449941,3.31052 -12.663399,5.92657 -4.213459,2.61606 -8.195293,5.71819 -10.464061,8.8204 -2.268768,3.10222 -2.824373,6.20435 -2.89382,8.36894 -0.06945,2.1646 0.347255,3.39156 0.810274,4.4565 0.463018,1.06494 0.972324,1.9678 6.273824,7.25772 z"
       id="path8-6"
       inkscape:path-effect="#path-effect8-6"
       inkscape:original-d="m 37.365148,357.53862 c 10.093683,9.67698 20.187366,19.35395 30.281049,29.03092 2.222506,1.06495 4.444924,2.12986 6.667386,3.19479 1.666881,-1.80579 3.333694,-3.6115 5.000541,-5.41725 1.064951,-1.71319 2.129859,-3.4263 3.194789,-5.13945 0.185209,-4.76913 0.370411,-9.53807 0.555616,-14.3071 0,-9.63086 0,-19.26134 0,-28.89201 -0.879742,-2.31511 -1.75945,-4.63013 -2.639174,-6.94519 -2.731831,-1.20386 -5.463553,-2.40767 -8.19533,-3.61151 -3.565271,0.23152 -7.1304,0.46302 -10.6956,0.69452 -4.445013,2.12991 -8.889849,4.25972 -13.334774,6.38958 -3.981991,3.10225 -7.963823,6.20438 -11.945735,9.30656 -0.555626,3.10225 -1.111231,6.20438 -1.666846,9.30656 0.41672,1.22701 0.833423,2.45397 1.250135,3.68096 0.509324,0.90289 1.018628,1.80575 1.527943,2.70862 z"
       inkscape:label="blanc9"
       transform="rotate(180,269.11143,287.56842)" />
    <path
       style="fill:#ffffff"
       d="m 66.812773,219.07459 c 2.592871,-1.66684 6.505334,-3.86616 9.468637,-5.09314 2.963302,-1.22699 4.977368,-1.48164 6.991494,-1.49322 2.014127,-0.0116 4.028194,0.21993 5.787658,0.64823 1.759464,0.42829 3.264228,1.05334 4.641704,1.45848 1.377475,0.40514 2.627585,0.59034 4.24815,0.57877 1.620565,-0.0116 3.611484,-0.21993 5.544574,-0.87974 1.9331,-0.6598 3.80827,-1.77101 5.56773,-3.17164 1.75947,-1.40063 3.40314,-3.0906 4.45649,-4.5491 1.05336,-1.4585 1.51637,-2.68546 1.72472,-3.94719 0.20836,-1.26172 0.16205,-2.55813 0,-4.02821 -0.16206,-1.47009 -0.43986,-3.11375 -1.09967,-4.95425 -0.6598,-1.84049 -1.70156,-3.87771 -2.99801,-6.1002 -1.29645,-2.22248 -2.84751,-4.6301 -4.38705,-6.59792 -1.53953,-1.96782 -3.06744,-3.49573 -4.50279,-4.61855 -1.43536,-1.12281 -2.778071,-1.84047 -4.236578,-2.33821 -1.458506,-0.49774 -3.032718,-0.77554 -4.664856,-0.69451 -1.632137,0.081 -3.3221,0.52089 -4.884784,1.19226 -1.562683,0.67138 -2.997997,1.57424 -4.734317,2.92857 -1.736319,1.35433 -3.773533,3.16004 -6.065473,5.41726 -2.291939,2.25721 -4.838463,4.96579 -8.021714,8.27637 -3.183252,3.31058 -7.003032,7.22296 -10.24415,10.82292 -3.241117,3.59996 -5.903385,6.88728 -7.454484,9.29497 -1.551099,2.40768 -1.990952,3.93559 -1.944647,5.30149 0.0463,1.3659 0.578759,2.56971 1.377466,3.66938 0.798708,1.09966 1.863618,2.09512 2.847531,2.77807 0.983913,0.68295 1.886769,1.05335 3.113769,1.00704 1.226999,-0.0463 2.778061,-0.50931 4.190263,-1.30801 1.412203,-0.79871 2.685465,-1.93307 5.278337,-3.59992 z"
       id="path10"
       inkscape:path-effect="#path-effect10"
       inkscape:original-d="m 65.493186,219.60706 c 3.91246,-2.19931 7.82492,-4.39863 11.737379,-6.59794 2.014147,-0.25466 4.028213,-0.50931 6.04232,-0.76397 2.014146,0.23151 4.028213,0.46301 6.042319,0.69452 1.504822,0.62508 3.009584,1.25014 4.514377,1.8752 1.25016,0.18521 2.50027,0.37041 3.750405,0.55562 1.990995,-0.20836 3.981914,-0.41671 5.972864,-0.62507 1.87524,-1.11125 3.75041,-2.22246 5.62561,-3.33369 1.64373,-1.69003 3.28739,-3.38 4.93109,-5.06999 0.46302,-1.22701 0.92603,-2.45397 1.38904,-3.68096 -0.0463,-1.29646 -0.0926,-2.59287 -0.13891,-3.88931 -0.27781,-1.64373 -0.55561,-3.28739 -0.83342,-4.93109 -1.0418,-2.03729 -2.08356,-4.07451 -3.12534,-6.11177 -1.55112,-2.40771 -3.10218,-4.81533 -4.65328,-7.223 -1.52797,-1.52797 -3.05588,-3.05588 -4.58383,-4.58383 -1.34276,-0.71768 -2.685471,-1.43534 -4.028209,-2.15301 -1.574275,-0.27781 -3.148488,-0.55561 -4.722732,-0.83342 -1.690031,0.43987 -3.379995,0.87972 -5.069992,1.31959 -1.435369,0.90289 -2.870681,1.80575 -4.306021,2.70862 -2.037298,1.80579 -4.074514,3.6115 -6.111771,5.41725 -2.546623,2.70868 -5.093143,5.41726 -7.639714,8.12588 -3.819934,3.91254 -7.639715,7.82492 -11.459572,11.73738 -2.662378,3.28746 -5.324649,6.57478 -7.986974,9.86218 -0.439871,1.52797 -0.879724,3.05588 -1.319587,4.58383 0.532476,1.20385 1.06493,2.40766 1.597395,3.6115 1.064951,0.99549 2.12986,1.99095 3.19479,2.98643 0.902893,0.37042 1.80575,0.74082 2.708626,1.11123 1.551124,-0.46302 3.102187,-0.92602 4.65328,-1.38904 1.273311,-1.1344 2.546572,-2.26876 3.819857,-3.40314 z"
       inkscape:label="blanc10" />
    <path
       style="fill:#ffffff"
       d="m 66.812773,219.07459 c 2.592871,-1.66684 6.505334,-3.86616 9.468637,-5.09314 2.963302,-1.22699 4.977368,-1.48164 6.991494,-1.49322 2.014127,-0.0116 4.028194,0.21993 5.787658,0.64823 1.759464,0.42829 3.264228,1.05334 4.641704,1.45848 1.377475,0.40514 2.627585,0.59034 4.24815,0.57877 1.620565,-0.0116 3.611484,-0.21993 5.544574,-0.87974 1.9331,-0.6598 3.80827,-1.77101 5.56773,-3.17164 1.75947,-1.40063 3.40314,-3.0906 4.45649,-4.5491 1.05336,-1.4585 1.51637,-2.68546 1.72472,-3.94719 0.20836,-1.26172 0.16205,-2.55813 0,-4.02821 -0.16206,-1.47009 -0.43986,-3.11375 -1.09967,-4.95425 -0.6598,-1.84049 -1.70156,-3.87771 -2.99801,-6.1002 -1.29645,-2.22248 -2.84751,-4.6301 -4.38705,-6.59792 -1.53953,-1.96782 -3.06744,-3.49573 -4.50279,-4.61855 -1.43536,-1.12281 -2.778071,-1.84047 -4.236578,-2.33821 -1.458506,-0.49774 -3.032718,-0.77554 -4.664856,-0.69451 -1.632137,0.081 -3.3221,0.52089 -4.884784,1.19226 -1.562683,0.67138 -2.997997,1.57424 -4.734317,2.92857 -1.736319,1.35433 -3.773533,3.16004 -6.065473,5.41726 -2.291939,2.25721 -4.838463,4.96579 -8.021714,8.27637 -3.183252,3.31058 -7.003032,7.22296 -10.24415,10.82292 -3.241117,3.59996 -5.903385,6.88728 -7.454484,9.29497 -1.551099,2.40768 -1.990952,3.93559 -1.944647,5.30149 0.0463,1.3659 0.578759,2.56971 1.377466,3.66938 0.798708,1.09966 1.863618,2.09512 2.847531,2.77807 0.983913,0.68295 1.886769,1.05335 3.113769,1.00704 1.226999,-0.0463 2.778061,-0.50931 4.190263,-1.30801 1.412203,-0.79871 2.685465,-1.93307 5.278337,-3.59992 z"
       id="path10-0"
       inkscape:path-effect="#path-effect10-1"
       inkscape:original-d="m 65.493186,219.60706 c 3.91246,-2.19931 7.82492,-4.39863 11.737379,-6.59794 2.014147,-0.25466 4.028213,-0.50931 6.04232,-0.76397 2.014146,0.23151 4.028213,0.46301 6.042319,0.69452 1.504822,0.62508 3.009584,1.25014 4.514377,1.8752 1.25016,0.18521 2.50027,0.37041 3.750405,0.55562 1.990995,-0.20836 3.981914,-0.41671 5.972864,-0.62507 1.87524,-1.11125 3.75041,-2.22246 5.62561,-3.33369 1.64373,-1.69003 3.28739,-3.38 4.93109,-5.06999 0.46302,-1.22701 0.92603,-2.45397 1.38904,-3.68096 -0.0463,-1.29646 -0.0926,-2.59287 -0.13891,-3.88931 -0.27781,-1.64373 -0.55561,-3.28739 -0.83342,-4.93109 -1.0418,-2.03729 -2.08356,-4.07451 -3.12534,-6.11177 -1.55112,-2.40771 -3.10218,-4.81533 -4.65328,-7.223 -1.52797,-1.52797 -3.05588,-3.05588 -4.58383,-4.58383 -1.34276,-0.71768 -2.685471,-1.43534 -4.028209,-2.15301 -1.574275,-0.27781 -3.148488,-0.55561 -4.722732,-0.83342 -1.690031,0.43987 -3.379995,0.87972 -5.069992,1.31959 -1.435369,0.90289 -2.870681,1.80575 -4.306021,2.70862 -2.037298,1.80579 -4.074514,3.6115 -6.111771,5.41725 -2.546623,2.70868 -5.093143,5.41726 -7.639714,8.12588 -3.819934,3.91254 -7.639715,7.82492 -11.459572,11.73738 -2.662378,3.28746 -5.324649,6.57478 -7.986974,9.86218 -0.439871,1.52797 -0.879724,3.05588 -1.319587,4.58383 0.532476,1.20385 1.06493,2.40766 1.597395,3.6115 1.064951,0.99549 2.12986,1.99095 3.19479,2.98643 0.902893,0.37042 1.80575,0.74082 2.708626,1.11123 1.551124,-0.46302 3.102187,-0.92602 4.65328,-1.38904 1.273311,-1.1344 2.546572,-2.26876 3.819857,-3.40314 z"
       inkscape:label="blanc11"
       transform="rotate(180,269.08054,287.49949)" />
    <ellipse
       style="fill:#ffffff;stroke-width:1.20271"
       id="path1"
       cx="268.96814"
       cy="234.13333"
       rx="9.1918659"
       ry="9.003315"
       inkscape:label="rodonaBlanca1" />
    <ellipse
       style="fill:#ffffff;stroke-width:1.20271"
       id="path1-8-1-2-2-6"
       cx="307.85498"
       cy="96.672554"
       rx="9.1918659"
       ry="9.003315"
       inkscape:label="rodonaBlanca2" />
    <ellipse
       style="fill:#ffffff;stroke-width:1.20271"
       id="path1-1-9"
       cx="269.2587"
       cy="340.66983"
       rx="9.1918659"
       ry="9.003315"
       inkscape:label="rodonaBlanca3" />
    <ellipse
       style="fill:#ffffff;stroke-width:1.20271"
       id="path1-1"
       cx="230.41463"
       cy="478.13379"
       rx="9.1918659"
       ry="9.003315"
       inkscape:label="rodonaBlanca4" />
    <ellipse
       style="fill:#ffffff;stroke-width:1.20271"
       id="path1-1-4"
       cx="377.09631"
       cy="302.09512"
       rx="9.1918659"
       ry="9.003315"
       inkscape:label="rodonaBlanca5" />
    <ellipse
       style="fill:#ffffff;stroke-width:1.20271"
       id="path1-1-4-6"
       cx="160.16161"
       cy="272.66586"
       rx="9.1918659"
       ry="9.003315"
       inkscape:label="rodonaBlanca6" />
    <ellipse
       style="fill:#000000;stroke-width:1.20271"
       id="path1-8"
       cx="179.73004"
       cy="163.60811"
       rx="9.1918659"
       ry="9.003315"
       inkscape:label="rodonaNegra1" />
    <ellipse
       style="fill:#000000;stroke-width:1.20271"
       id="path1-8-1"
       cx="269.05548"
       cy="128.80565"
       rx="9.1918659"
       ry="9.003315"
       inkscape:label="rodonaNegra2" />
    <ellipse
       style="fill:#000000;stroke-width:1.20271"
       id="path1-8-1-2"
       cx="170.06421"
       cy="101.87137"
       rx="9.1918659"
       ry="9.003315"
       inkscape:label="rodonaNegra3" />
    <ellipse
       style="fill:#000000;stroke-width:1.20271"
       id="path1-8-1-2-2"
       cx="368.18756"
       cy="147.86852"
       rx="9.1918659"
       ry="9.003315"
       inkscape:label="rodonaNegra4" />
    <ellipse
       style="fill:#000000;stroke-width:1.20271"
       id="path1-8-1-2-2-2"
       cx="168.96696"
       cy="427.27719"
       rx="9.1918659"
       ry="9.003315"
       inkscape:label="rodonaNegra5" />
    <ellipse
       style="fill:#000000;stroke-width:1.20271"
       id="path1-8-1-2-2-2-1"
       cx="269.12393"
       cy="446.10422"
       rx="9.1918659"
       ry="9.003315"
       inkscape:label="rodonaNegra6" />
    <ellipse
       style="fill:#000000;stroke-width:1.20271"
       id="path1-8-1-2-2-2-1-2"
       cx="367.73004"
       cy="473.34326"
       rx="9.1918659"
       ry="9.003315"
       inkscape:label="rodonaNegra7" />
    <ellipse
       style="fill:#000000;stroke-width:1.20271"
       id="path1-8-1-2-2-2-1-2-1"
       cx="358.23584"
       cy="412.03729"
       rx="9.1918659"
       ry="9.003315"
       inkscape:label="rodonaNegra8" />
    <ellipse
       style="fill:#000000;stroke-width:1.20271"
       id="path1-8-1-2-2-2-1-2-1-0"
       cx="441.3894"
       cy="377.47366"
       rx="9.1918659"
       ry="9.003315"
       inkscape:label="rodonaNegra9" />
    <ellipse
       style="fill:#000000;stroke-width:1.20271"
       id="path1-8-1-2-2-2-1-2-1-0-2"
       cx="57.680824"
       cy="351.60504"
       rx="9.1918659"
       ry="9.003315"
       inkscape:label="rodonaNegra10" />
    <ellipse
       style="fill:#000000;stroke-width:1.20271"
       id="path1-8-1-2-2-2-1-2-1-0-2-0"
       cx="96.190903"
       cy="197.12926"
       rx="9.1918659"
       ry="9.003315"
       inkscape:label="rodonaNegra11" />
    <ellipse
       style="fill:#000000;stroke-width:1.20271"
       id="path1-8-1-2-2-2-1-2-1-0-2-0-1"
       cx="478.88788"
       cy="223.00223"
       rx="9.1918659"
       ry="9.003315"
       inkscape:label="rodonaNegra12" />
  </g>
  <g
     inkscape:groupmode="layer"
     inkscape:label="Image"
     id="g1"
     transform="translate(-27.48382,-46.752666)" />
</svg>
