<?xml version="1.0" encoding="UTF-8" standalone="no"?>
<!-- Created with Inkscape (http://www.inkscape.org/) -->

<svg
   version="1.1"
   id="svg1"
   width="1244.8656"
   height="650.10468"
   viewBox="0 0 1244.8656 650.10468"
   sodipodi:docname="logoNikeExerciciOptatiu.svg"
   inkscape:version="1.4 (86a8ad7, 2024-10-11)"
   xmlns:inkscape="http://www.inkscape.org/namespaces/inkscape"
   xmlns:sodipodi="http://sodipodi.sourceforge.net/DTD/sodipodi-0.dtd"
   xmlns="http://www.w3.org/2000/svg"
   xmlns:svg="http://www.w3.org/2000/svg">
  <defs
     id="defs1" />
  <sodipodi:namedview
     id="namedview1"
     pagecolor="#ffffff"
     bordercolor="#000000"
     borderopacity="0.25"
     inkscape:showpageshadow="2"
     inkscape:pageopacity="0.0"
     inkscape:pagecheckerboard="0"
     inkscape:deskcolor="#d1d1d1"
     inkscape:zoom="0.72446111"
     inkscape:cx="623.22186"
     inkscape:cy="231.20634"
     inkscape:window-width="1920"
     inkscape:window-height="991"
     inkscape:window-x="-9"
     inkscape:window-y="-9"
     inkscape:window-maximized="1"
     inkscape:current-layer="g1" />
  <g
     inkscape:groupmode="layer"
     inkscape:label="Image"
     id="g1"
     transform="translate(-168.06191,-302.63556)">
    <path
       style="fill:#000000"
       d="M 301.5,951.87264 C 264.00018,948.30156 227.32218,932.06289 201.18726,907.46057 182.81886,890.16933 173.22715,871.89548 169.45227,847 160.06944,785.11987 198.39151,693.23958 277.89488,587 292.84591,567.0211 325,526.9668 325,528.32125 c 0,0.19149 -1.54343,3.51958 -3.42985,7.39575 -5.18023,10.64422 -14.02288,33.47971 -17.53506,45.283 -21.11402,70.95731 -8.66773,125.22233 36.21551,157.89724 24.56668,17.8845 63.24731,27.30091 99.62594,24.25295 18.07664,-1.51454 27.59539,-3.46979 61.12346,-12.55537 15.125,-4.09863 44.375,-12.01511 65,-17.59216 20.625,-5.57705 63.825,-17.2824 96,-26.01189 32.175,-8.72949 77.85,-21.10595 101.5,-27.50325 23.65,-6.3973 56.275,-15.22986 72.5,-19.62791 16.225,-4.39806 37.9375,-10.28141 48.25,-13.07411 10.3125,-2.79271 18.75018,-5.34941 18.75039,-5.68157 2.2e-4,-0.33216 -25.42478,-0.46967 -56.5,-0.30557 L 790,641.09672 789.98,632.79836 C 789.969,628.23426 789.30301,600.875 788.5,572 c -0.80301,-28.875 -1.46901,-56.6625 -1.48001,-61.75 -0.011,-5.0875 -0.37414,-9.25 -0.80699,-9.25 -0.43284,0 -12.6786,31.32587 -27.2128,69.61305 -14.5342,38.28717 -26.89363,69.79256 -27.4654,70.01197 -0.57177,0.21941 -18.4072,0.28104 -39.63429,0.13695 L 653.3058,640.5 662.45969,616 c 5.03464,-13.475 12.57953,-33.725 16.76642,-45 8.07061,-21.73359 47.55691,-127.91659 68.42413,-184 6.85548,-18.425 16.60119,-44.63438 21.65713,-58.24306 l 9.19263,-24.74306 39.75,-0.007 c 23.96764,-0.004 39.75,0.36392 39.75,0.92712 0,0.51374 -8.04203,22.00124 -17.87118,47.75 C 821.75198,400.82467 820.58459,404 821.26286,404 c 0.2187,0 5.08653,-5.69521 10.81739,-12.65602 5.73086,-6.96081 12.7018,-15.39831 15.49096,-18.75 2.78917,-3.35169 16.6934,-20.15648 30.89828,-37.34398 L 904.29656,304 h 121.45874 c 96.7454,0 121.3651,0.25434 120.999,1.25 -0.2529,0.6875 -4.9113,13.0625 -10.352,27.5 l -9.8922,26.25 h -40.2199 c -37.4892,0 -40.2843,0.12045 -41.1693,1.77409 -0.5222,0.97575 -4.1804,10.53825 -8.1293,21.25 -8.3756,22.71958 -16.5402,44.72838 -17.5194,47.22591 -0.6463,1.64822 1.5501,1.75 37.765,1.75 h 38.4511 L 1084.0942,461.97273 1072.5,492.94545 1034,493.22273 995.5,493.5 980.27642,534 c -8.37298,22.275 -15.23548,40.8375 -15.25,41.25 -0.0145,0.4125 20.84001,0.75 46.34348,0.75 h 46.3698 l -4.5039,12.53263 c -2.4771,6.89295 -4.2885,12.74805 -4.0252,13.01134 0.4368,0.43677 51.3336,-13.25775 314.2894,-84.56419 43.7647,-11.86778 45.9535,-12.40348 47.7936,-11.69735 2.3832,0.91452 2.1265,3.21231 -0.5553,4.96945 -1.2439,0.81504 -20.7064,9.45941 -43.25,19.2097 -22.5435,9.75028 -44.3633,19.22282 -48.4883,21.05008 -4.125,1.82726 -17.4,7.58877 -29.5,12.80335 -12.1,5.21458 -32.35,13.9699 -45,19.45627 -12.65,5.48636 -38.075,16.50145 -56.5,24.47797 -18.425,7.97653 -52.175,22.61173 -75,32.52268 -22.825,9.91095 -56.8,24.63659 -75.5,32.72363 -18.7,8.08704 -40.525,17.54349 -48.5,21.01433 -7.975,3.47083 -29.575,12.82669 -48,20.7908 -18.425,7.9641 -51.95,22.45506 -74.5,32.20212 C 566.40697,876.21566 480.95844,912.51195 441.44287,927.05592 385.95668,947.47798 340.32552,955.56996 301.5,951.87264 Z M 926.9973,465.02471 c 31.43899,-83.86022 57.37756,-152.82223 57.64127,-153.24892 0.2637,-0.42668 0.0954,-0.77579 -0.37404,-0.77579 -0.46942,0 -8.52481,8.4375 -17.90085,18.75 -9.37605,10.3125 -29.38103,32.28763 -44.45552,48.83363 -15.07449,16.546 -31.45384,34.546 -36.39856,40 -4.94472,5.454 -11.84524,12.84137 -15.33448,16.41637 l -6.34407,6.5 0.59585,23 c 2.66443,102.84834 4.36575,154.04068 5.09514,153.3113 0.1724,-0.17241 26.03627,-68.92637 57.47526,-152.78659 z M 368.45042,732.64759 c -6.52982,-2.96024 -10.93133,-12.22068 -8.93513,-18.79883 3.48624,-11.48831 17.12754,-16.46257 26.85941,-9.79418 9.44499,6.47181 9.72683,20.46456 0.5439,27.00338 -4.0671,2.89603 -13.74833,3.72933 -18.46818,1.58963 z m 17.35399,-7.13122 c 3.14661,-3.43355 3.38959,-4.14558 2.95568,-8.66137 -0.31506,-3.27888 -1.23695,-5.73369 -2.76348,-7.35861 -7.31693,-7.78851 -20.31955,-3.96312 -21.70772,6.38644 -1.17412,8.75375 4.35911,14.56155 13.14908,13.80157 4.1581,-0.35951 5.47945,-1.01779 8.36644,-4.16803 z m -15.91664,0.80695 c -0.36747,-2.69581 -0.43562,-15.02879 -0.0888,-16.07332 0.26296,-0.79199 2.3703,-1.25 5.75133,-1.25 4.38078,0 5.61506,0.39797 6.89302,2.22251 2.01748,2.88036 1.97096,3.36323 -0.56871,5.9029 -2.03478,2.03478 -2.0561,2.27075 -0.5,5.53393 2.02674,4.25012 2.02277,4.34066 -0.19045,4.34066 -1.08781,0 -2.7918,-1.70399 -4.25,-4.25 L 374.5,718.5 374,722.49032 c -0.34523,2.75513 -1.0417,4.0934 -2.25,4.32332 -0.9625,0.18316 -1.8005,-0.0375 -1.86223,-0.49032 z M 379,714.10699 C 379,712.37205 377.19748,711 374.91821,711 374.4132,711 374,712.125 374,713.5 c 0,2 0.5,2.5 2.5,2.5 1.78624,0 2.5,-0.54047 2.5,-1.89301 z M 337.46421,639.25 c 1.38477,-3.57324 61.28654,-163.15011 75.54499,-201.25 8.13033,-21.725 20.02583,-53.45 26.43445,-70.5 6.40861,-17.05 14.38571,-38.3125 17.72689,-47.25 L 463.2454,304 h 42.25446 42.25447 l -0.38118,4.25 c -0.20965,2.3375 -1.05868,15.05 -1.88675,28.25 -0.82806,13.2 -2.84867,44.89008 -4.49025,70.4224 -1.64158,25.53232 -2.77286,46.63423 -2.51396,46.89313 0.2589,0.2589 0.69609,-0.15618 0.97152,-0.9224 0.27543,-0.76622 7.51853,-20.06813 16.09578,-42.89313 8.57724,-22.825 21.02118,-56.0125 27.6532,-73.75 L 595.2609,304 h 39.36955 C 656.2837,304 674,304.24796 674,304.55102 c 0,0.30306 -21.64221,58.24056 -48.09381,128.75 C 599.4546,503.81046 571.8219,577.475 564.50019,597 c -7.32171,19.525 -14.07835,37.4125 -15.01477,39.75 L 547.78284,641 H 505.39142 463 v -3.06261 c 0,-1.68443 0.44783,-9.44693 0.99517,-17.25 3.56598,-50.83728 8.07498,-123.25246 7.8147,-125.50529 -0.20212,-1.74942 -9.66953,22.35522 -27.22551,69.3179 -14.80361,39.6 -27.27997,73.0125 -27.72525,74.25 L 416.0495,641 h -39.63174 c -37.3362,0 -39.59246,-0.10136 -38.95355,-1.75 z m 224.53602,-5.98858 c 1.57786,-4.26878 30.01053,-80.09892 63.1837,-168.51142 L 685.49877,304 h 39.35903 39.35902 l -0.60021,2.25 c -0.33012,1.2375 -28.63073,76.95 -62.89025,168.25 l -62.29003,166 -39.65248,0.26142 -39.65248,0.26141 z M 1171.0204,333.75 c -5.5921,-2.85743 -8.1054,-6.32471 -8.7537,-12.07625 -0.6608,-5.86241 0.1148,-8.78527 3.3521,-12.63259 5.7775,-6.86619 14.7476,-8.36064 22.5914,-3.76384 5.291,3.10073 7.9565,7.85375 7.9565,14.18793 0,7.13863 -3.4309,12.07591 -10.4212,14.99661 -5.116,2.1376 -9.5699,1.92228 -14.7251,-0.71186 z m 15.9077,-4.69879 c 5.9573,-4.24201 6.2765,-13.69204 0.6412,-18.98613 -4.8066,-4.51557 -14.4018,-3.6361 -18.6032,1.70514 -2.3711,3.0144 -2.629,10.04727 -0.518,14.1294 3.1273,6.04746 12.2324,7.60026 18.48,3.15159 z m -14.717,-9.80121 0.2889,-8.75 5.2633,0.13858 c 6.2149,0.16364 8.2367,1.53267 8.2367,5.57748 0,2.13018 -0.5661,3.11922 -2,3.49419 -2.478,0.64801 -2.4758,0.78389 0.082,4.92172 L 1186.1631,328 h -2.3963 c -1.7541,0 -2.8437,-0.93803 -4.0654,-3.5 -0.918,-1.925 -2.1263,-3.5 -2.6852,-3.5 -0.5589,0 -1.0162,1.575 -1.0162,3.5 0,2.85561 -0.3754,3.5 -2.0389,3.5 -1.9186,0 -2.0219,-0.5165 -1.75,-8.75 z m 9.2889,-3.75 c 0,-1.43844 -0.7721,-2.08884 -2.75,-2.31642 -2.3838,-0.27429 -2.75,0.0342 -2.75,2.31642 0,2.28224 0.3662,2.59071 2.75,2.31642 1.9779,-0.22758 2.75,-0.87798 2.75,-2.31642 z"
       id="path1" />
  </g>
</svg>
