<?xml version="1.0" encoding="UTF-8" standalone="no"?>
<!-- Created with Inkscape (http://www.inkscape.org/) -->

<svg
   version="1.1"
   id="svg1"
   width="3581.1982"
   height="2034.0045"
   viewBox="0 0 3581.1982 2034.0045"
   sodipodi:docname="x_logo_batman.png"
   inkscape:version="1.4 (86a8ad7, 2024-10-11)"
   xmlns:inkscape="http://www.inkscape.org/namespaces/inkscape"
   xmlns:sodipodi="http://sodipodi.sourceforge.net/DTD/sodipodi-0.dtd"
   xmlns="http://www.w3.org/2000/svg"
   xmlns:svg="http://www.w3.org/2000/svg">
  <defs
     id="defs1" />
  <sodipodi:namedview
     id="namedview1"
     pagecolor="#ffffff"
     bordercolor="#000000"
     borderopacity="0.25"
     inkscape:showpageshadow="2"
     inkscape:pageopacity="0.0"
     inkscape:pagecheckerboard="0"
     inkscape:deskcolor="#d1d1d1"
     inkscape:zoom="0.12652628"
     inkscape:cx="-952.3713"
     inkscape:cy="1023.5028"
     inkscape:window-width="1920"
     inkscape:window-height="991"
     inkscape:window-x="-9"
     inkscape:window-y="-9"
     inkscape:window-maximized="1"
     inkscape:current-layer="g1" />
  <g
     inkscape:groupmode="layer"
     inkscape:label="Image"
     id="g1"
     transform="translate(-128.39948,-58.578166)">
    <path
       style="fill:#000000"
       d="m 1900.7477,2092.4684 c -0.1363,-0.1065 -20.2727,-0.4924 -44.7477,-0.8577 -24.475,-0.3652 -46.75,-0.8595 -49.5,-1.0985 -2.75,-0.2389 -11.3,-0.6639 -19,-0.9444 -100.1498,-3.6486 -175.0279,-9.9283 -268,-22.4759 -89.5738,-12.0891 -114.7575,-16.1976 -187.5,-30.5888 -66.1982,-13.0965 -72.5235,-14.4992 -117.5,-26.0572 -16.5,-4.2402 -32.25,-8.1431 -35,-8.6731 -14.19,-2.7349 -34.1338,-8.318 -91.6524,-25.6572 -7.5087,-2.2636 -14.3522,-4.1156 -15.2075,-4.1156 -1.8482,0 -66.6402,-21.5036 -78.11729,-25.9261 -4.38745,-1.6907 -8.79489,-3.0739 -9.79431,-3.0739 -1.63984,0 -35.6276,-12.5862 -65.95288,-24.4235 -6.44842,-2.5171 -12.54592,-4.5765 -13.55,-4.5765 -1.00409,0 -2.25312,-0.3823 -2.77562,-0.8496 -0.5225,-0.4673 -7.025,-3.2385 -14.45,-6.1583 -7.425,-2.9198 -13.95,-5.6482 -14.5,-6.063 -0.55,-0.4149 -4.6,-2.1817 -9,-3.9261 -4.4,-1.7445 -11.825,-4.8722 -16.5,-6.9504 -4.675,-2.0782 -10.3,-4.3493 -12.5,-5.0468 -4.1316,-1.31 -26.86778,-11.7383 -48.16515,-22.0918 -6.69083,-3.2527 -12.73355,-5.914 -13.42826,-5.914 -1.26349,0 -25.69148,-12.1118 -46.40659,-23.0092 -6.05,-3.1827 -12.05556,-6.1016 -13.34569,-6.4865 -1.29012,-0.3849 -7.36512,-3.5231 -13.5,-6.9738 -6.13487,-3.4507 -14.97931,-8.3783 -19.65431,-10.9501 -4.675,-2.5718 -10.525,-5.9691 -13,-7.5496 -2.475,-1.5805 -5.175,-2.9148 -6,-2.9651 -0.825,-0.05 -5.4321,-2.4481 -10.238,-5.3286 -4.8059,-2.8804 -15.10244,-9.0621 -22.88119,-13.7371 -7.77875,-4.675 -16.80891,-9.9555 -20.06702,-11.7343 -3.25812,-1.7789 -13.66158,-8.3093 -23.11882,-14.5119 -9.45723,-6.2027 -18.86163,-12.1194 -20.89867,-13.1482 -2.03703,-1.0289 -4.51203,-2.6157 -5.5,-3.5262 -0.98796,-0.9106 -7.93897,-5.8285 -15.44667,-10.9287 -7.50771,-5.1002 -14.43995,-10.1455 -15.40499,-11.2119 -0.96504,-1.0663 -2.30629,-1.9388 -2.98055,-1.9388 -1.18351,0 -23.40131,-15.5616 -24.51,-17.1671 -0.78442,-1.1359 -14.179,-10.9047 -18.77326,-13.6915 -2.13859,-1.2973 -5.53693,-3.8689 -7.55188,-5.7149 -6.1169,-5.6038 -22.86715,-18.9366 -27.2787,-21.7132 -2.28237,-1.4365 -4.30737,-3.004 -4.5,-3.4834 -0.19264,-0.4794 -8.90025,-8.1837 -19.35025,-17.1208 -10.45,-8.9371 -24.175,-21.0398 -30.5,-26.8949 -17.12942,-15.8567 -64,-63.3439 -64,-64.842 0,-0.716 -0.85281,-1.7582 -1.89513,-2.3161 -1.50955,-0.8079 -18.367,-19.6685 -26.41696,-29.5561 -0.89556,-1.1 -5.91876,-7.3306 -11.16267,-13.8459 -5.2439,-6.5152 -11.55731,-14.2137 -14.0298,-17.1078 C 273.02295,1476.6523 271,1473.9232 271,1473.4817 271,1472.566 259.28951,1456.0212 257.56471,1454.5 255.80201,1452.9454 243,1434.2522 243,1433.2329 c 0,-0.499 -1.74089,-3.3431 -3.86864,-6.3201 -2.12775,-2.977 -6.90492,-10.3628 -10.61592,-16.4128 -3.711,-6.05 -8.20845,-13.25 -9.99434,-16 -1.78588,-2.75 -4.21241,-7.203 -5.39228,-9.8957 -1.17987,-2.6926 -4.33641,-8.7676 -7.01454,-13.5 C 198.85631,1358.2791 185,1330.9952 185,1329.5291 c 0,-1.274 -2.87318,-8.1779 -7.64994,-18.3817 -1.37815,-2.9439 -4.50711,-10.5939 -6.95325,-17 -2.44614,-6.4061 -4.88838,-12.5474 -5.42719,-13.6474 -1.59926,-3.2649 -7.00331,-19.6806 -7.90083,-24 -0.45712,-2.2 -2.94943,-11.2 -5.53846,-20 -26.5606,-90.2784 -30.30194,-185.3499 -10.94009,-278 3.92298,-18.77216 11.06226,-46.36752 13.85466,-53.55217 0.75933,-1.9537 1.84438,-6.06102 2.41123,-9.12738 1.17129,-6.33609 12.9691,-38.20973 22.14213,-59.82045 7.01115,-16.51754 18.88496,-40.90857 28.46818,-58.47898 3.59346,-6.58843 6.53356,-12.403 6.53356,-12.92125 0,-0.51826 0.59108,-1.65272 1.31351,-2.52103 0.72243,-0.86831 3.94886,-6.07874 7.16984,-11.57874 3.22098,-5.5 9.1549,-14.78863 13.18649,-20.64139 4.03159,-5.85276 7.34342,-11.25276 7.35963,-12 0.0162,-0.74724 3.0537,-5.43692 6.75,-10.42152 3.69629,-4.9846 9.87053,-13.44817 13.72053,-18.80794 10.08026,-14.03319 29.28735,-38.78737 31.91265,-41.12915 1.23318,-1.1 3.30432,-3.575 4.60253,-5.5 3.23502,-4.79692 12.98915,-16.0738 21.19169,-24.5 3.74781,-3.85 7.68345,-8.35 8.74588,-10 3.83843,-5.96129 70.9747,-72.27956 75.79041,-74.86698 1.15984,-0.62316 5.42415,-4.28302 9.47624,-8.13302 8.94111,-8.49518 24.23749,-21.5 25.28849,-21.5 0.41952,0 1.71437,-1.02088 2.87744,-2.26861 1.16307,-1.24774 7.96467,-6.96599 15.11467,-12.70722 7.15,-5.74124 13.15316,-10.80483 13.34035,-11.25243 0.18719,-0.4476 1.60845,-1.46959 3.15837,-2.27108 C 477.67038,473.11909 499.93961,456.54336 501,455.14703 501.95571,453.88855 512.91907,446 513.71237,446 c 0.439,0 4.17081,-2.46319 8.29291,-5.47376 16.60775,-12.12944 28.67763,-20.51273 31.99472,-22.22235 1.925,-0.99214 3.725,-2.06897 4,-2.39297 C 559.23483,414.4561 599.94864,388 600.95266,388 c 0.61943,0 5.49599,-2.85738 10.83679,-6.34974 9.82273,-6.42309 28.11528,-17.48309 34.97384,-21.1458 5.57635,-2.97796 24.39188,-13.46701 32.03199,-17.85679 3.6876,-2.11878 13.90472,-7.56003 22.70472,-12.09166 8.8,-4.53163 24.325,-12.55657 34.5,-17.83318 10.175,-5.27662 20.75,-10.47712 23.5,-11.55666 2.75,-1.07954 10.625,-4.73691 17.5,-8.12749 17.40694,-8.58467 42.21993,-20.03504 43.46344,-20.05693 0.57011,-0.01 7.56156,-2.95341 15.53656,-6.54083 7.975,-3.58742 19.45,-8.57672 25.5,-11.08732 6.05,-2.51061 11.45,-4.90185 12,-5.31388 1.05155,-0.78777 12.1983,-4.9278 19,-7.05683 2.2,-0.68862 5.8,-2.07332 8,-3.0771 C 910.73804,235.23457 963.60995,215 965.57759,215 c 0.73479,0 11.36793,-3.635 23.6292,-8.07778 C 1015.6042,197.35731 1049.3239,186 1051.3245,186 c 0.7797,0 6.3131,-1.53483 12.2965,-3.41074 58.4938,-18.33876 63.3829,-19.76197 89.879,-26.16355 3.3,-0.79729 14.55,-3.74004 25,-6.53943 36.8024,-9.85878 78.0867,-19.8975 85.8127,-20.86625 4.2971,-0.53882 8.2063,-1.22279 8.6871,-1.51992 C 1276.5032,125.33489 1404.1088,100 1411.5111,100 c 1.7552,0 11.0207,-1.325494 20.59,-2.945543 40.3551,-6.831912 107.6946,-16.246414 146.8989,-20.5374 37.3109,-4.08375 43.5218,-4.668067 58.5,-5.503581 8.8,-0.490882 24.55,-1.59332 35,-2.449863 46.7695,-3.833498 81.9181,-6.036673 113.5,-7.114367 10.175,-0.347211 19.625,-0.808047 21,-1.024081 3.1687,-0.49785 86.1057,-1.865429 112,-1.846811 26.8939,0.01934 108.9401,1.374126 112,1.849402 1.375,0.213567 10.825,0.675964 21,1.02755 21.9169,0.757311 76.0483,3.990515 101.4636,6.060293 9.92,0.807871 25.2364,1.93151 34.0364,2.496975 46.0664,2.960104 109.0466,10.260135 176,20.400134 15.95,2.415606 36.875,5.576427 46.5,7.024045 38.3771,5.771987 98.3474,17.148047 140,26.557277 7.425,1.67729 16.425,3.52855 20,4.11391 7.3898,1.20999 70.8708,16.66679 93.5,22.76607 8.25,2.22363 17.7,4.7086 21,5.52215 3.3,0.81355 9.6,2.36489 14,3.44742 11.9196,2.93258 37.7597,10.67606 76.873,23.03641 5.4301,1.71601 10.5136,3.12001 11.2965,3.12001 1.9994,0 35.8687,11.39813 62.2761,20.958 12.2181,4.4231 22.7993,8.042 23.5137,8.042 1.7368,0 40.7394,14.8475 68.0407,25.90168 3.85,1.55885 9.475,3.62017 12.5,4.58071 3.025,0.96055 7.3,2.61754 9.5,3.6822 2.2,1.06466 10.075,4.45523 17.5,7.53459 7.425,3.07936 13.95,5.92466 14.5,6.3229 1.5181,1.09918 22.2562,9.97792 23.3055,9.97792 1.1542,0 13.6886,5.80082 36.1945,16.75049 9.625,4.6828 20.65,9.8248 24.5,11.42666 3.85,1.60187 14.875,7.01533 24.5,12.02992 9.625,5.01458 25.15,13.04537 34.5,17.84618 9.35,4.80081 19.7,10.318 23,12.26043 6.0207,3.54385 23.7469,13.45796 30.7367,17.19078 6.8586,3.66271 25.1511,14.72271 34.9739,21.1458 5.3408,3.49236 10.2173,6.34974 10.8367,6.34974 1.0041,0 41.7179,26.4561 42.9527,27.91092 0.275,0.324 2.075,1.40083 4,2.39297 3.3171,1.70962 15.387,10.09291 31.9947,22.22235 4.1221,3.01057 7.8334,5.47376 8.2472,5.47376 0.7951,0 12.904,8.70975 13.7581,9.89604 0.9947,1.3816 22.1184,17.1138 24.933,18.56931 1.5875,0.82091 3.0395,1.85879 3.2267,2.30639 0.1871,0.4476 6.1903,5.51119 13.3403,11.25243 7.15,5.74123 13.9516,11.45948 15.1147,12.70722 1.163,1.24773 2.4579,2.26861 2.8774,2.26861 1.0366,0 16.2432,12.88705 25.4812,21.59437 4.1397,3.9019 8.4062,7.57126 9.4811,8.15413 4.905,2.65977 69.5707,66.70965 76.4797,75.7515 2.1013,2.75 5.0535,6.125 6.5604,7.5 3.7774,3.44683 19.5781,21.72359 22.4776,26 1.3052,1.925 3.3821,4.4 4.6152,5.5 2.4934,2.22409 21.87,27.14914 30.4127,39.12124 3.025,4.23937 9.0521,12.47138 13.3935,18.29335 4.3415,5.82198 8.5534,12.16041 9.3599,14.08541 0.8065,1.925 4.269,7.55 7.6946,12.5 3.4255,4.95 8.86,13.5 12.0766,19 3.2166,5.5 6.4395,10.71043 7.1619,11.57874 0.7224,0.86831 1.3135,2.00277 1.3135,2.52103 0,0.51825 2.9401,6.33282 6.5336,12.92125 9.5832,17.57041 21.457,41.96144 28.4681,58.47898 8.0471,18.95799 20.6782,52.56837 22.0534,58.68223 0.596,2.64977 1.7009,6.84277 2.4552,9.31777 30.3991,99.7371 34.2282,199.6283 11.4999,300 -4.947,21.8466 -17.9963,67.502 -21.5796,75.5 -0.7392,1.65 -3.3535,8.2413 -5.8095,14.6474 -2.456,6.4061 -5.593,14.0561 -6.9712,17 -4.7767,10.2038 -7.6499,17.1077 -7.6499,18.3817 0,1.4661 -13.8563,28.75 -21.1143,41.5752 -2.6781,4.7324 -5.8379,10.8074 -7.0217,13.5 -1.1838,2.6927 -4.0281,7.8207 -6.3207,11.3957 -2.2926,3.575 -7.0069,11.1346 -10.4763,16.7991 -3.4694,5.6645 -6.9089,10.8999 -7.6433,11.6343 -0.7344,0.7344 -2.3372,3.2998 -3.5619,5.7009 -2.38,4.6662 -14.5377,22.6999 -16.4265,24.3657 -1.7086,1.5069 -13.4353,18.0617 -13.4353,18.9669 0,0.4334 -3.0817,4.4431 -6.8482,8.9105 -3.7665,4.4674 -10.629,12.8808 -15.25,18.6964 -33.0514,41.5953 -82.4636,92.0016 -130.4018,133.0251 -10.45,8.9427 -19.1576,16.6516 -19.3502,17.131 -0.1927,0.4794 -2.2177,2.0469 -4.5,3.4834 -4.4116,2.7766 -21.1619,16.1094 -27.2787,21.7132 -2.015,1.846 -5.4195,4.4176 -7.5657,5.7149 -4.5621,2.7576 -17.0599,11.8701 -17.845,13.0114 -0.503,0.7312 -20.1737,14.8764 -26.9047,19.3472 -10.3093,6.8476 -30.8422,21.1729 -32.352,22.5712 -0.988,0.9151 -3.4486,2.5109 -5.468,3.5463 -4.3547,2.2327 -20.518,12.3872 -21.2357,13.3411 -0.6143,0.8165 -22.4558,14.2909 -26.2234,16.1776 -3.543,1.7743 -25.7008,15.1049 -32.7766,19.7192 -3.025,1.9726 -10.225,5.9852 -16,8.9169 -5.775,2.9317 -13.425,7.0238 -17,9.0935 -13.7879,7.9825 -36.2842,20.1342 -37.2742,20.1342 -0.571,0 -6.0304,2.6499 -12.132,5.8887 -18.7826,9.97 -45.1744,23.1113 -46.4147,23.1113 -0.6475,0 -6.6902,2.6628 -13.4282,5.9174 -21.8009,10.5302 -44.1515,20.7518 -48.2509,22.0665 -2.2,0.7055 -6.2982,2.3301 -9.1071,3.6103 -2.8089,1.2801 -10.1908,4.4096 -16.4042,6.9545 -6.2134,2.5448 -12.0152,5.0432 -12.8929,5.5519 -3.1067,1.8008 -28.6497,12.0584 -32.2763,12.9616 -2.0243,0.5042 -12.1493,4.2304 -22.5,8.2805 -29.8615,11.6845 -39.2698,15.2289 -47.8195,18.0152 -4.4,1.434 -16.7706,5.6075 -27.4902,9.2744 -31.0492,10.6214 -67.3037,22.3677 -69.0371,22.3677 -0.876,0 -8.7657,2.2129 -17.5327,4.9176 -28.7396,8.8665 -69.7419,20.6223 -79.19,22.7048 -12.4044,2.7341 -19.3154,4.4023 -54.75,13.2158 -43.96,10.934 -59.8715,14.6697 -69,16.1999 -3.85,0.6454 -21.4,4.0384 -39,7.5402 -39.8987,7.9383 -87.5896,16.6044 -106,19.2616 -34.9002,5.0372 -88.2335,12.3035 -111,15.1228 -73.1283,9.0561 -136.9451,14.499 -200,17.0579 -28.8725,1.1717 -42.826,1.7947 -55.5,2.4779 -14.9993,0.8085 -131.5177,2.5441 -132.2523,1.9699 z M 2035.5,2040.083 c 37.7312,-1.6915 77.7619,-3.9946 105.5,-6.0699 14.025,-1.0492 32.925,-2.4015 42,-3.005 52.4252,-3.4862 127.7737,-12.379 194.1115,-22.9094 6.8137,-1.0816 20.2635,-3.1358 29.8885,-4.5648 40.1591,-5.9627 86.2501,-14.6676 133.5,-25.2135 13.75,-3.0689 27.749,-5.9464 31.1088,-6.3944 7.3881,-0.9852 50.2196,-11.5376 83.5658,-20.5881 13.379,-3.6312 26.5754,-7.0428 29.3254,-7.5814 9.6456,-1.889 50.8369,-14.0464 84.1717,-24.8427 8.3444,-2.7026 15.9356,-4.9138 16.8692,-4.9138 1.8336,0 48.1973,-15.8941 68.2562,-23.3991 6.7634,-2.5305 13.1209,-4.6009 14.1278,-4.6009 1.7734,0 6.2178,-1.5934 12.7262,-4.5625 1.7332,-0.7906 3.4528,-1.4375 3.8214,-1.4375 0.8101,0 47.2927,-18.4356 53.2226,-21.1088 2.3074,-1.0402 4.6581,-1.8912 5.224,-1.8912 1.3232,0 13.6512,-4.9024 22.2982,-8.8671 3.6945,-1.694 9.5445,-4.2635 13,-5.71 3.4555,-1.4465 12.0304,-5.2834 19.0553,-8.5264 7.025,-3.2431 13.4319,-5.8965 14.2376,-5.8965 2.5459,0 92.7669,-44.0646 98.754,-48.2323 1.5203,-1.0583 8.2703,-4.6075 15,-7.8871 11.7969,-5.7491 34.7709,-18.5063 43.4147,-24.1079 2.2985,-1.4894 7.0235,-4.0584 10.5,-5.7088 3.4766,-1.6504 8.7961,-4.6481 11.8211,-6.6616 3.025,-2.0135 11.35,-7.2531 18.5,-11.6437 7.15,-4.3906 13.2342,-8.3543 13.5204,-8.8082 0.2861,-0.4539 1.7588,-1.2962 3.2725,-1.8717 2.7249,-1.036 17.7554,-10.8207 33.2071,-21.6174 4.4,-3.0745 9.8,-6.4672 12,-7.5393 2.2,-1.0722 5.4111,-3.1807 7.1358,-4.6857 2.9595,-2.5826 28.762,-21.5852 32.23,-23.7363 3.8504,-2.3883 26.0271,-19.5633 30.0403,-23.265 2.4233,-2.2352 5.5733,-4.6568 7,-5.3813 3.164,-1.6067 11.2283,-8.1655 20.5939,-16.7492 3.85,-3.5286 9.6789,-8.4015 12.9531,-10.8286 3.2742,-2.4271 11.9644,-10.1196 19.3116,-17.0944 7.3472,-6.9748 13.8308,-12.8482 14.4081,-13.0519 2.3129,-0.8162 62.9715,-62.9428 66.5198,-68.1296 1.7292,-2.5278 12.4393,-14.8604 17.9261,-20.6418 1.6399,-1.7281 4.4216,-5.1031 6.1814,-7.5 9.5838,-13.0534 13.7965,-18.5116 15.3268,-19.8582 2.6583,-2.3391 16.8731,-22.1643 16.8731,-23.5326 0,-0.6724 0.6968,-1.8008 1.5485,-2.5077 2.0669,-1.7154 26.3953,-37.6816 27.5589,-40.7421 1.0575,-2.7815 8.6663,-16.001 10.4856,-18.2176 1.7197,-2.0953 18.407,-32.8789 18.407,-33.956 0,-0.4843 2.9895,-7.1048 6.6434,-14.7123 8.2911,-17.2623 21.3566,-48.0444 21.3566,-50.3158 0,-0.9353 1.989,-7.3408 4.4201,-14.2345 21.5013,-60.9709 30.4882,-118.8189 29.3237,-188.7538 -0.7047,-42.325 -4.2171,-74.62078 -11.8066,-108.55956 -4.5583,-20.38413 -6.4018,-26.92537 -15.632,-55.46804 -9.519,-29.43559 -18.7278,-52.37525 -31.7132,-79 -8.2217,-16.85738 -14.3801,-28.88362 -16.1187,-31.47697 C 3579.7651,787.48342 3567,765.40558 3567,764.76119 c 0,-0.89811 -17.4888,-27.02005 -22.938,-34.26119 -2.8973,-3.85 -5.6459,-7.97456 -6.1081,-9.16568 -0.9768,-2.51748 -7.3183,-11.09904 -18.0408,-24.41348 -4.1727,-5.18146 -8.7257,-11.22084 -10.1177,-13.42084 -1.392,-2.2 -3.6423,-5.125 -5.0006,-6.5 -1.3583,-1.375 -7.0537,-7.9 -12.6563,-14.5 -5.6026,-6.6 -13.2132,-15.375 -16.9125,-19.5 -9.5953,-10.69952 -58.7667,-59.85459 -71.226,-71.20237 -12.5937,-11.4702 -37.4649,-33.02508 -43.3071,-37.53263 -2.3061,-1.77925 -7.2969,-5.60425 -11.0907,-8.5 -3.7938,-2.89575 -8.2938,-6.56404 -10,-8.15176 -4.9327,-4.59017 -16.9124,-13.77394 -19.1022,-14.64404 -1.1,-0.43708 -4.7915,-3.06521 -8.2034,-5.8403 -9.8167,-7.98462 -19.4241,-14.91117 -39.8103,-28.70149 -10.4424,-7.06388 -21.2363,-14.54883 -23.9863,-16.63321 -2.75,-2.08438 -6.575,-4.51528 -8.5,-5.40199 -3.6297,-1.67197 -16.1218,-9.3719 -17,-10.47852 -0.687,-0.8657 -30.0426,-18.9033 -30.8507,-18.95622 -0.3571,-0.0234 -6.4993,-3.59022 -13.6493,-7.92628 C 3159.4077,397.45281 3142.4802,388 3140.8386,388 c -0.7912,0 -1.996,-0.55739 -2.6772,-1.23864 -1.5813,-1.58122 -26.1829,-14.98137 -41.1614,-22.41994 -6.325,-3.14111 -22.075,-10.97249 -35,-17.40306 -12.925,-6.43057 -26.425,-12.92985 -30,-14.44283 -3.575,-1.51298 -13.025,-5.69099 -21,-9.28446 -7.975,-3.59346 -21.025,-9.38054 -29,-12.86016 -7.975,-3.47963 -15.2814,-6.78206 -16.2364,-7.33875 -0.9551,-0.55669 -2.3571,-1.01216 -3.1157,-1.01216 -0.7587,0 -7.4023,-2.4963 -14.7636,-5.54732 -33.629,-13.93806 -55.6968,-22.62628 -59.8128,-23.5487 -2.464,-0.5522 -5.8506,-1.63802 -7.5258,-2.41292 C 2875.6669,268.23419 2832.665,252.63454 2819,248.16431 2765.3047,230.59905 2714.842,215 2711.7138,215 c -0.8638,0 -10.0403,-2.42199 -20.3922,-5.3822 -37.6779,-10.77433 -81.5126,-22.20775 -90.3216,-23.55864 -3.575,-0.54824 -13.25,-2.5915 -21.5,-4.54058 -40.3187,-9.5254 -106.9253,-23.51463 -112,-23.52313 -1.65,-0.003 -12.8494,-1.80971 -24.8877,-4.01544 -58.0217,-10.63119 -142.7549,-23.00796 -171.1123,-24.99397 -7.7,-0.53927 -15.125,-1.19868 -16.5,-1.46536 -3.5082,-0.68041 -58.7633,-6.11783 -81,-7.97086 -43.7712,-3.64753 -87.8559,-6.36599 -142,-8.75634 -38.0138,-1.67824 -186.8081,-1.67887 -225.5,-9.6e-4 -82.212,3.5652 -132.4553,7.2251 -214.5,15.62497 -12.925,1.32328 -29.0365,2.8972 -35.8032,3.49761 -26.7774,2.3759 -111.0149,14.98694 -160.6968,24.05761 -12.1,2.20915 -23.35,4.01915 -25,4.0222 -5.1414,0.01 -74.9727,14.68651 -112,23.53989 -8.25,1.97261 -17.9175,4.0223 -21.4834,4.55486 -8.6181,1.28714 -30.956,7.05835 -86.5166,22.35242 -12.65,3.48215 -25.475,6.90216 -28.5,7.60002 -8.1445,1.87892 -59.8298,17.99754 -103,32.12166 -13.6698,4.47239 -56.66962,20.07168 -61.54574,22.3273 -1.67515,0.7749 -5.05015,1.86079 -7.5,2.41307 -4.32356,0.9747 -32.59435,12.07403 -59.82969,23.48961 -7.35649,3.08344 -14.12899,5.60626 -15.05,5.60626 -0.92101,0 -2.10207,0.37774 -2.62457,0.83942 -0.5225,0.46169 -5,2.53986 -9.95,4.61817 -4.95,2.07831 -12.15,5.23841 -16,7.02245 -7.42896,3.44248 -30.32734,13.67153 -42,18.76204 -6.17831,2.69439 -26.08185,12.45166 -63.5,31.12947 -15.75484,7.86426 -39.65242,20.85698 -41.16077,22.37845 -0.68158,0.6875 -1.93673,1.25319 -2.78923,1.25709 -1.49524,0.007 -6.80338,2.981 -37.02101,20.74291 -7.71947,4.5375 -14.21366,8.25 -14.43154,8.25 -0.64939,0 -30.05417,18.22473 -30.59745,18.96393 -0.96101,1.30759 -15.07312,10.03637 -16.28118,10.07042 -0.67035,0.0189 -3.91882,1.99186 -7.21882,4.38435 -3.3,2.3925 -12.525,8.78067 -20.5,14.19594 -20.7449,14.08642 -36.43355,25.32043 -44.5,31.86465 -3.85,3.12346 -7.9,6.04927 -9,6.5018 -1.1,0.45253 -4.99078,3.22941 -8.64618,6.17085 -23.16903,18.64372 -28.19923,22.66056 -31.74281,25.34806 -2.17558,1.65 -10.17808,8.38929 -17.78331,14.97621 C 417.85533,585.39555 374.30146,628.78905 346.38804,662 c -5.31609,6.325 -11.40316,13.27631 -13.52683,15.44735 C 330.73755,679.61839 329,681.7731 329,682.2356 c 0,0.8779 -15.60783,21.52024 -17.59039,23.2644 -1.84291,1.62131 -9.03258,11.6754 -11.40891,15.95434 -1.20784,2.17489 -4.57395,7.12489 -7.48024,11 -5.23219,6.97634 -20.67853,30.11833 -21.38919,32.04566 -0.67893,1.84128 -14.58039,25.98531 -15.61254,27.11583 -0.86225,0.94443 -4.55771,8.14733 -14.57065,28.39997 -5.52518,11.17548 -19.20973,42.00316 -22.63212,50.9842 -5.43184,14.25425 -16.53302,48.61741 -20.83703,64.5 -9.01194,33.25576 -12.66751,56.11238 -16.47326,103 -1.24989,15.3988 -1.25669,58.4751 -0.0117,74 4.66431,58.1627 10.71014,88.7981 27.43137,139 2.93111,8.8 6.01918,18.25 6.86238,21 2.22294,7.2498 12.30793,30.6991 20.56504,47.8171 3.93098,8.1494 7.14723,15.1722 7.14723,15.6061 0,0.9715 15.78254,29.9972 17.44155,32.0768 1.66031,2.0813 8.77279,14.5144 11.58629,20.2537 1.28168,2.6145 3.03724,5.5395 3.90124,6.5 0.86401,0.9604 5.79769,8.1588 10.96374,15.9963 5.16605,7.8375 9.72728,14.25 10.13606,14.25 0.40878,0 1.53516,1.6689 2.50307,3.7086 1.89655,3.9967 14.60903,21.8275 17.31852,24.2914 2.39452,2.1775 12.14953,14.6499 12.14953,15.534 0,0.8455 8.45842,11.1598 11.04301,13.466 2.23208,1.9916 14.08025,15.8337 16.26311,19 3.59858,5.2198 64.28124,67.3357 66.57534,68.1477 0.54743,0.1938 7.00665,6.059 14.35382,13.0338 7.34717,6.9748 16.03739,14.6673 19.31161,17.0944 3.27421,2.4271 9.10311,7.3073 12.95311,10.8448 8.328,7.652 15.52244,13.4912 21,17.044 2.2,1.4269 6.64245,4.9238 9.87211,7.7708 5.21912,4.6007 22.57409,17.9218 26.79189,20.5645 1.83641,1.1506 27.57183,19.9132 29.85586,21.7667 4.40392,3.5736 8.94283,6.7333 9.67252,6.7333 0.4542,0 5.09673,2.9358 10.31672,6.524 19.33061,13.2877 32.02124,21.537 34.69797,22.5547 1.51372,0.5755 2.98638,1.4178 3.27258,1.8717 0.28619,0.4539 6.37035,4.4115 13.52035,8.7946 7.15,4.383 15.025,9.3372 17.5,11.0093 2.475,1.6721 9.44534,5.5968 15.48964,8.7216 6.04431,3.1249 11.21931,6.0226 11.5,6.4395 0.2807,0.4168 6.36036,4.0522 13.51036,8.0786 13.55176,7.6315 16.45858,9.1662 30.5,16.1033 4.675,2.3096 9.625,4.9633 11,5.897 5.96446,4.0501 96.10849,48.0057 98.45013,48.0057 1.32094,0 7.05124,2.4391 20.54987,8.7469 3.575,1.6706 9.32721,4.2229 12.78268,5.6717 3.45547,1.4489 9.30547,4.0211 13,5.716 8.75254,4.0155 15.42663,6.6959 22.21732,8.9226 3.025,0.9919 13.375,5.0187 23,8.9484 9.625,3.9297 22.225,8.9254 28,11.1015 5.775,2.1761 11.4,4.3721 12.5,4.8799 5.04763,2.3303 9.90112,4.013 11.57506,4.013 1.00694,0 7.36449,2.0704 14.12787,4.6009 20.91358,7.8248 66.45808,23.3991 68.42688,23.3991 1.0276,0 8.6187,2.2166 16.8692,4.9258 29.5903,9.7164 74.207,22.9035 84.001,24.8276 2.75,0.5403 16.0101,3.9703 29.4669,7.6224 32.7921,8.8994 76.1291,19.5656 83.5331,20.5594 3.3,0.443 17.25,3.3112 31,6.3738 43.3175,9.6485 110.3943,22.691 116.698,22.691 1.5829,0 13.7735,1.7804 27.09,3.9565 70.7135,11.5552 160.029,22.7457 199.712,25.0223 9.075,0.5207 27.975,1.8556 42,2.9665 46.3356,3.6703 96.6647,6.4185 147,8.0267 33.8459,1.0814 175.1862,0.4699 205.5,-0.889 z M 1918,1805.6684 c 0,-1.4349 -1.6969,-7.2311 -8.5858,-29.327 -2.4278,-7.7872 -4.4142,-14.861 -4.4142,-15.7195 0,-3.4721 -25.9707,-73.6874 -28.137,-76.0719 -0.4746,-0.5225 -0.863,-1.7077 -0.863,-2.6337 0,-2.9645 -7.5119,-20.2035 -22.4048,-51.4163 -2.8867,-6.05 -6.9499,-14.6 -9.0294,-19 -4.7334,-10.0156 -22.1739,-41.251 -24.1186,-43.1957 -0.796,-0.7959 -1.4756,-2.2025 -1.5103,-3.1257 -0.068,-1.8041 -10.3628,-18.1684 -20.9718,-33.3358 -3.5942,-5.1386 -7.8692,-11.4554 -9.5,-14.0375 -4.3956,-6.9597 -25.8023,-33.2249 -33.9063,-41.6019 -3.8823,-4.0131 -7.2079,-7.7228 -7.3901,-8.2438 -0.5373,-1.5365 -22.8742,-21.6551 -33.1685,-29.8745 -5.2249,-4.1718 -10.6249,-8.6026 -12,-9.8461 -1.3751,-1.2436 -3.3639,-2.5356 -4.4196,-2.8712 -1.0557,-0.3356 -6.4986,-3.4406 -12.0953,-6.9 C 1669.8167,1408.7827 1642.6071,1396 1637.66,1396 c -0.8464,0 -6.9221,-1.3145 -13.5015,-2.9212 -28.638,-6.9931 -59.9171,-7.1144 -98.1585,-0.3807 -7.975,1.4043 -16.75,2.911 -19.5,3.3483 -16.9916,2.7017 -50.0176,16.223 -63.9,26.1615 -2.1451,1.5357 -4.4611,2.7921 -5.1467,2.7921 -2.4351,0 -15.8391,11.3166 -26.8154,22.6395 -10.7762,11.1165 -21.6379,25.2417 -21.6379,28.1393 0,0.7769 -0.8455,2.6069 -1.879,4.0668 -2.9659,4.1899 -8.0122,16.7709 -10.9999,27.4242 l -2.7399,9.7697 -6.4406,-6.7085 c -25.0128,-26.0535 -57.6024,-56.331 -60.6324,-56.331 -0.5211,0 -1.9254,-1.1246 -3.1205,-2.4992 -1.1952,-1.3745 -7.6888,-6.5966 -14.4304,-11.6047 -6.7415,-5.008 -13.1573,-9.9193 -14.2573,-10.914 -1.1,-0.9946 -4.025,-2.898 -6.5,-4.2298 -5.0129,-2.6975 -21.2199,-12.8923 -22,-13.8389 -0.8826,-1.0708 -22.3915,-13.2529 -25.5,-14.4425 -1.65,-0.6314 -7.725,-3.4242 -13.5,-6.2062 C 1185.0526,1379.692 1151.4911,1367 1145.4808,1367 c -1.3798,0 -7.1149,-1.0996 -12.7448,-2.4436 -36.9116,-8.8117 -82.1635,-8.9639 -116.236,-0.3909 -4.4,1.1071 -10.2859,2.3867 -13.0797,2.8435 -12.10884,1.9802 -34.34492,11.7246 -55.69987,24.4091 -13.58821,8.0712 -15.9387,9.9256 -29.15936,23.0046 -7.90889,7.8242 -15.20809,15.8525 -16.22044,17.8407 -1.01235,1.9882 -4.60367,8.2548 -7.98072,13.9258 -6.81585,11.4456 -9.63101,17.7659 -14.16901,31.8108 -6.17174,19.1013 -6.6909,23.5241 -6.6909,57 0,29.3219 0.10638,31.0258 2.75412,44.1131 4.95782,24.5057 9.54757,38.4077 24.64288,74.6413 4.09532,9.8301 13.72433,26.6253 22.21361,38.7456 3.8523,5.5 7.43378,11.0561 7.95885,12.3468 0.52506,1.2908 8.74205,10.1783 18.25997,19.75 10.56669,10.6265 16.625,17.4032 15.55823,17.4032 -2.45553,0 -50.50226,-16.6072 -67.6233,-23.3738 -7.8296,-3.0944 -14.91095,-5.6262 -15.73634,-5.6262 -1.38304,0 -23.32039,-9.0527 -35.02802,-14.4547 -2.75,-1.2689 -11.3,-5.1018 -19,-8.5175 -27.17349,-12.0542 -30.17827,-13.4801 -49,-23.2519 -23.38296,-12.1398 -20.05263,-10.4241 -32.5,-16.7432 -5.775,-2.9317 -12.75,-6.7789 -15.5,-8.5493 -2.75,-1.7704 -9.95,-6.0138 -16,-9.4299 -19.17841,-10.8289 -25.31404,-14.5988 -40,-24.577 -6.6,-4.4843 -13.575,-8.8991 -15.5,-9.8107 -1.925,-0.9115 -6.875,-4.2068 -11,-7.3229 -9.58835,-7.2431 -27.94651,-20.5411 -30.1547,-21.8429 -2.97332,-1.7529 -28.26049,-21.8703 -30.46712,-24.2384 -1.167,-1.2524 -3.81435,-3.4256 -5.883,-4.8294 -4.40834,-2.9916 -23.21193,-19.1454 -23.67684,-20.3404 -0.17509,-0.45 -4.14334,-4.0766 -8.81834,-8.0591 -10.26018,-8.7403 -46.62808,-45.5234 -48.47922,-49.0327 -0.72532,-1.375 -3.15751,-4.1994 -5.40488,-6.2765 C 490.07773,1451.067 472,1429.6016 472,1428.2758 c 0,-0.5312 -0.93579,-1.8127 -2.07954,-2.8478 -2.80322,-2.5369 -23.86707,-30.6057 -26.59686,-35.4418 -1.19702,-2.1207 -6.58151,-10.5226 -11.96554,-18.671 -5.38402,-8.1484 -11.86395,-18.9499 -14.39983,-24.0034 -2.53589,-5.0535 -5.08824,-9.7785 -5.67191,-10.5 -1.7084,-2.1118 -20.81318,-40.7897 -23.12253,-46.8118 -1.16003,-3.025 -4.07322,-10.675 -6.47377,-17 -2.40055,-6.325 -5.74738,-15.1 -7.4374,-19.5 -12.46852,-32.462 -23.87287,-84.2608 -28.77188,-130.6825 -3.82434,-36.2385 -4.14955,-73.2593 -0.91822,-104.5272 2.02027,-19.54916 6.94568,-47.56816 10.42251,-59.2903 0.57097,-1.925 1.48548,-6.27453 2.03226,-9.66563 1.88813,-11.71019 18.55282,-57.03261 26.37575,-71.73331 1.43383,-2.69442 2.60696,-5.51509 2.60696,-6.26817 0,-1.4609 9.79257,-21.49169 10.91801,-22.33289 0.36792,-0.275 3.3075,-5.225 6.53239,-11 3.22489,-5.775 6.64099,-11.625 7.59134,-13 0.95034,-1.375 2.97636,-4.75 4.50227,-7.5 3.54979,-6.39744 14.89932,-22.97338 21.91037,-32 2.99033,-3.85 5.46141,-7.39973 5.49129,-7.88828 0.0599,-0.97969 10.86607,-15.33238 11.90476,-15.81186 0.72317,-0.33384 12.01876,-13.85379 17.89483,-21.41874 2.08527,-2.68462 8.49302,-9.76316 14.23944,-15.73011 5.74641,-5.96694 11.36619,-12.09348 12.48839,-13.61454 1.1222,-1.52106 7.89961,-8.33901 15.06091,-15.15101 7.1613,-6.812 14.80827,-14.11454 16.99327,-16.22785 2.185,-2.11331 8.47273,-7.76219 13.97273,-12.55305 5.5,-4.79086 12.67831,-11.27429 15.95179,-14.40761 3.27349,-3.13332 6.3598,-5.69695 6.85847,-5.69695 1.01058,0 16.33921,-12.31945 18.68974,-15.02075 0.825,-0.94811 5.55,-4.69682 10.5,-8.33046 4.95,-3.63365 11.21267,-8.30362 13.91704,-10.37771 12.15882,-9.3251 25.8186,-19.11803 41.80238,-29.96886 9.50432,-6.45215 19.53058,-13.44049 22.28058,-15.52966 2.75,-2.08916 7.025,-4.77929 9.5,-5.97806 4.85513,-2.35159 15.18455,-8.68677 16,-9.81303 0.63173,-0.87251 26.5838,-16.80174 31.73942,-19.48147 4.52802,-2.35352 22.78781,-12.89593 32.76058,-18.91454 3.85,-2.32349 9.925,-5.70812 13.5,-7.5214 7.4439,-3.77563 10.14536,-5.20213 26,-13.72929 20.20809,-10.86859 84.59018,-42.55521 92,-45.27919 1.925,-0.70766 5.975,-2.41265 9,-3.78887 3.025,-1.37621 9.41002,-4.22824 14.18893,-6.33784 4.77891,-2.1096 9.50391,-4.31209 10.5,-4.89441 3.34043,-1.95286 31.77587,-14.1967 34.81107,-14.98908 3.79087,-0.98967 21.64432,-8.08636 23.05997,-9.16627 0.58298,-0.44472 6.37145,-2.86142 12.86323,-5.37045 6.4918,-2.50903 13.7782,-5.46152 16.1919,-6.56109 6.5909,-3.00253 20.3119,-7.94757 22.052,-7.94757 0.8418,0 2.9486,-0.66637 4.6818,-1.48083 6.3898,-3.00281 55.8203,-21.26948 68.1511,-25.18472 4.4,-1.39707 18.8,-6.05514 32,-10.35126 13.2,-4.29611 31.425,-10.12945 40.5,-12.96297 9.075,-2.83352 18.4927,-5.79724 20.9281,-6.58604 2.4355,-0.7888 5.233,-1.43418 6.2167,-1.43418 1.9165,0 29.8565,-7.51786 33.6052,-9.0422 1.2375,-0.50321 2.25,-0.69346 2.25,-0.42279 0,1.14012 -2.7146,5.20554 -5.6522,8.46499 -1.735,1.925 -7.0497,8.9 -11.8105,15.5 -4.7608,6.6 -9.3267,12.81888 -10.1466,13.81974 -0.8198,1.00085 -2.7565,4.15085 -4.3038,7 -1.5474,2.84914 -6.4877,11.03026 -10.9787,18.18026 -4.4909,7.15 -10.2677,17.275 -12.8373,22.5 -2.5696,5.225 -6.1175,12.425 -7.8842,16 -27.4193,55.48317 -40.6437,113.51662 -37.2375,163.41197 2.4194,35.44196 13.55,71.28727 30.4579,98.08803 3.1228,4.95 7.0957,11.29402 8.8286,14.09782 7.4961,12.12837 36.1766,42.89207 53.0643,56.91869 3.3,2.74092 6.2767,5.36169 6.6149,5.82393 0.3382,0.46224 1.5605,1.36224 2.7163,2 1.1557,0.63776 8.754,5.87149 16.8851,11.63052 14.7553,10.45087 33.8685,20.93367 53.2837,29.22393 5.225,2.23107 11.3,4.85764 13.5,5.83683 6.3274,2.81625 31.716,10.96828 34.1595,10.96828 1.2172,0 7.7542,1.31387 14.5268,2.91971 49.0278,11.62498 107.9919,12.01694 159.8137,1.06235 7.975,-1.68583 16.75,-3.50144 19.5,-4.03468 14.9441,-2.89775 43.0651,-13.74206 60.6744,-23.39786 5.5664,-3.05224 10.5541,-5.54952 11.0837,-5.54952 2.9662,0 19.014,-13.13198 29.9401,-24.5 5.1243,-5.33163 13.8018,-19.4302 13.8018,-22.42423 0,-0.61535 1.5701,-5.13681 3.489,-10.04767 8.5277,-21.82333 22.2991,-80.82364 24.4986,-104.95824 0.4797,-5.26342 1.7818,-15.64486 2.8937,-23.06986 12.4516,-83.15028 24.623,-235.63469 26.6202,-333.5 0.3143,-15.4 0.8464,-30.85394 1.1825,-34.34209 l 0.6111,-6.3421 3.1024,5.54543 c 1.7064,3.04999 5.775,10.40393 9.0414,16.3421 3.2663,5.93816 7.8788,14.09634 10.25,18.12929 2.3711,4.03294 4.3287,7.85794 4.3501,8.5 0.022,0.64205 2.6827,5.89237 5.9137,11.66737 3.231,5.775 8.464,15.225 11.6288,21 3.1647,5.775 6.8036,12.17856 8.0863,14.23013 1.2827,2.05157 2.3322,4.16665 2.3322,4.70017 0,1.17242 12.7635,24.94846 14.5317,27.0697 0.6876,0.825 4.9708,8.7 9.5181,17.5 7.64,14.78481 13.4991,25.57747 28.3018,52.13282 3.1066,5.57305 5.6484,10.68967 5.6484,11.37027 0,0.68059 1.2375,3.19189 2.75,5.58066 l 2.75,4.34323 65.6826,0.0365 c 64.8206,0.036 65.691,0.0103 66.3174,-1.96349 0.3491,-1.1 0.9861,-2 1.4155,-2 0.4294,0 1.5726,-1.9125 2.5405,-4.25 2.3579,-5.6948 9.448,-19.6386 11.5678,-22.75 2.3029,-3.3801 13.043,-23.20389 22.484,-41.5 4.257,-8.25 8.5112,-16.125 9.4538,-17.5 2.965,-4.32555 15.0384,-26.83877 15.0384,-28.04209 0,-0.63204 0.8258,-2.34364 1.8351,-3.80354 1.0094,-1.4599 4.4473,-7.60437 7.64,-13.65437 3.1926,-6.05 6.3821,-11.675 7.0879,-12.5 0.7057,-0.825 4.6302,-8.025 8.7212,-16 6.4368,-12.54824 12.6214,-23.96989 26.3235,-48.61439 l 3.1076,-5.58941 0.6043,4.8519 c 0.3323,2.66855 0.8619,17.9019 1.1769,33.8519 1.9081,96.6228 13.8208,247.7137 26.137,331.5 1.4148,9.625 2.9282,21.325 3.363,26 2.4304,26.13288 15.7344,83.33682 25.0712,107.80043 8.4743,22.20366 11.976,27.18649 31.4323,44.72802 3.7912,3.41813 14.0954,10.47155 15.2976,10.47155 0.499,0 5.4616,2.49728 11.028,5.54952 38.3157,21.00986 91.3242,33.61703 147.6744,35.12189 33.7358,0.90094 61.5656,-1.72566 91.788,-8.663 7.2083,-1.65463 14.0419,-3.00841 15.1858,-3.00841 3.3633,0 28.7568,-8.67886 42.4109,-14.49497 27.7079,-11.80247 49.2346,-23.98083 69.2893,-39.1993 3.1208,-2.36815 5.9632,-4.30573 6.3166,-4.30573 1.2999,0 23.3248,-20.09754 33.5746,-30.6366 12.0673,-12.40789 24.4568,-26.91539 27.5298,-32.23604 3.1595,-5.47046 13.1963,-21.37051 14.8354,-23.50189 2.3722,-3.08451 11.829,-24.6751 13.6332,-31.12547 6.7205,-24.02667 8.1065,-29.59669 9.3997,-37.77525 0.8023,-5.07361 1.7152,-12.82475 2.0288,-17.22475 0.3137,-4.4 0.7824,-10.78425 1.0417,-14.18722 0.5903,-7.74643 -1.1385,-32.79829 -3.1134,-45.11614 -4.8001,-29.94012 -14.15,-63.32787 -23.4383,-83.69664 -12.6095,-27.65198 -24.3151,-51.23611 -28.5306,-57.48268 -5.4471,-8.0715 -15.4515,-24.70039 -15.4515,-25.68286 0,-0.52654 -0.7898,-1.82969 -1.7551,-2.8959 -0.9653,-1.06621 -5.5778,-7.28982 -10.25,-13.83025 -4.6722,-6.54042 -10.1824,-13.80947 -12.2449,-16.15345 -2.0625,-2.34397 -3.75,-4.70011 -3.75,-5.23587 0,-0.53575 -0.675,-1.5343 -1.5,-2.21899 -2.2507,-1.86795 -1.8052,-3.08121 0.75,-2.0422 3.7487,1.52434 31.6887,9.0422 33.6052,9.0422 0.9837,0 3.7812,0.64538 6.2167,1.43418 2.4354,0.7888 11.8531,3.75252 20.9281,6.58604 9.075,2.83352 27.3,8.66686 40.5,12.96297 13.2,4.29612 27.6,8.95419 32,10.35126 9.1322,2.89964 30.6562,10.73105 54,19.64763 8.8,3.36133 18.25,6.74065 21,7.5096 2.75,0.76896 8.825,2.95215 13.5,4.85155 24.531,9.9666 36.5035,14.88625 46,18.90194 5.775,2.44201 11.625,4.69108 13,4.99792 2.5433,0.56755 25.3119,10.48577 39.0864,17.02635 4.1725,1.98124 14.0725,6.37177 22,9.75673 20.9503,8.94555 75.591,35.63838 99.4136,48.56507 6.6,3.58131 18.4418,9.85874 26.315,13.94984 7.8733,4.09109 16.6483,8.95525 19.5,10.80924 6.7295,4.37499 24.3947,14.64968 25.1871,14.64968 0.8,0 31.8441,19.09402 32.4979,19.98823 0.8226,1.12506 11.1699,7.46679 16,9.80627 2.475,1.19877 6.75,3.88836 9.5,5.97687 2.75,2.08851 11.3,8.04098 19,13.2277 18.8234,12.67948 38.005,26.46801 43.5,31.26969 2.475,2.16272 5.8469,4.63014 7.4932,5.48316 3.2148,1.66577 16.0348,11.45052 18.5068,14.12514 2.6682,2.88685 17.766,15.12294 18.6599,15.12294 0.4767,0 4.2358,3.16344 8.3534,7.02987 4.1177,3.86642 11.2826,10.27892 15.9221,14.25 4.6395,3.97107 10.4895,9.27433 13,11.78503 2.5105,2.51069 10.2855,9.98673 17.2776,16.61341 6.9922,6.62668 14.4849,14.24748 16.6506,16.9351 2.1656,2.68762 8.0448,9.09551 13.0648,14.23975 5.0199,5.14424 10.3467,10.99424 11.8372,13 4.1189,5.54282 16.642,20.60492 17.4279,20.96133 0.9672,0.43862 11.8065,14.67045 11.8065,15.50172 0,0.77724 8.8239,12.92724 9.9378,13.68379 2.4325,1.65216 27.0634,41.19163 33.1966,53.29005 1.1739,2.31547 2.4678,4.43495 2.8754,4.70995 1.0063,0.6789 10.9902,20.69184 10.9902,22.03014 0,0.58656 0.9462,2.95723 2.1026,5.26817 8.5434,17.07215 26.8974,66.61559 26.8974,72.60476 0,1.45042 0.8598,5.77808 1.9107,9.61703 4.106,14.99929 8.1807,37.75481 10.7402,59.97991 2.3541,20.441 2.3268,68.8413 -0.053,94 -5.3747,56.8216 -16.0252,104.851 -33.2033,149.7335 -3.6347,9.4966 -7.0774,18.6165 -7.6505,20.2665 -3.7107,10.6839 -22.9823,50.3879 -26.8827,55.3849 -1.0238,1.3116 -1.8615,3.0331 -1.8615,3.8255 0,2.0275 -6.5977,13.1953 -18.5257,31.3579 -5.6233,8.5626 -10.5214,16.5046 -10.8846,17.6489 -0.3632,1.1444 -1.6838,3.1387 -2.9347,4.4318 -1.2509,1.293 -5.1666,6.401 -8.7015,11.351 -3.5349,4.95 -8.7264,11.7174 -11.5365,15.0386 -2.8102,3.3212 -5.2911,6.5428 -5.5132,7.159 -0.6855,1.9021 -16.673,20.8301 -21.4885,25.4408 -2.5054,2.3989 -5.1599,5.4866 -5.8988,6.8616 -1.7434,3.244 -39.9175,41.9749 -49.0165,49.7314 -3.85,3.282 -9.8933,8.7635 -13.4296,12.1812 -3.5363,3.4177 -9.8363,8.8812 -14,12.1409 -4.1637,3.2598 -8.9204,7.1773 -10.5704,8.7054 -3.4947,3.2367 -28.8556,23.2675 -31.3245,24.7411 -0.9215,0.55 -7.1873,5.05 -13.924,10 -6.7367,4.95 -14.8367,10.8963 -18,13.214 -3.1633,2.3177 -7.3265,4.9712 -9.2515,5.8966 -3.577,1.7198 -12.099,7.2333 -13,8.4108 -0.7496,0.9797 -28.1817,18.016 -34.7668,21.5915 -3.1533,1.7121 -9.5582,5.3979 -14.2332,8.1906 -16.4191,9.8082 -33.6507,19.1965 -35.2339,19.1965 -0.8797,0 -1.7494,0.364 -1.9328,0.8089 -0.4033,0.9788 -38.5089,20.6335 -48.3333,24.9301 -3.85,1.6838 -15.55,6.9075 -26,11.6083 -22.4817,10.1131 -39.272,17.2699 -45.5,19.3942 -9.6977,3.3077 -18.6815,6.6154 -22.5,8.2841 -8.501,3.7151 -62.1241,21.9744 -64.5333,21.9744 -0.8808,0 6.1262,-7.7714 15.5712,-17.2697 9.4449,-9.4984 17.9234,-18.7216 18.841,-20.4962 1.7523,-3.3886 11.9197,-18.661 14.1363,-21.2341 2.1331,-2.4762 13.4276,-23.3939 15.4577,-28.628 1.0392,-2.6796 4.6471,-11.5496 8.0174,-19.7111 7.5829,-18.3625 14.2492,-41.3143 17.5209,-60.3233 2.1968,-12.7638 2.4888,-17.3741 2.4888,-39.2995 0,-20.079 -0.3737,-27.0144 -1.9498,-36.1887 -3.2265,-18.7807 -9.267,-35.4049 -18.8397,-51.8494 -3.682,-6.325 -7.3731,-12.7342 -8.2025,-14.2426 -3.5211,-6.4039 -32.5468,-34.8693 -37.4656,-36.7426 -1.1233,-0.4278 -6.3174,-3.3855 -11.5424,-6.5728 -16.4705,-10.0471 -41.2903,-20.6176 -52.8151,-22.4933 -3.011,-0.49 -7.7987,-1.5666 -10.6393,-2.3924 -2.8407,-0.8258 -10.988,-2.5148 -18.1052,-3.7533 -11.2306,-1.9543 -16.5079,-2.2552 -39.9404,-2.2774 -28.9659,-0.027 -39.1885,0.9954 -60.236,6.0273 -5.6299,1.3459 -11.365,2.4471 -12.7448,2.4471 -3.2426,0 -28.3503,8.5384 -41.1105,13.9805 -29.7927,12.7063 -45.3575,20.8901 -69.4087,36.494 -6.325,4.1036 -11.9623,7.4755 -12.5274,7.4933 -0.565,0.018 -2.59,1.35 -4.5,2.9606 -1.9099,1.6106 -9.3226,7.3001 -16.4726,12.6434 -7.15,5.3432 -13.588,10.5505 -14.3067,11.5716 -0.7187,1.0211 -1.8437,1.8698 -2.5,1.8859 -1.1016,0.027 -18.1521,14.5238 -27.2765,23.1913 -6.5096,6.1834 -27.3216,26.8648 -33.7775,33.5653 l -6.0564,6.2859 -2.201,-8.2859 c -2.7407,-10.3179 -7.7352,-23.1009 -10.9457,-28.0145 -1.3399,-2.0507 -2.4362,-4.3307 -2.4362,-5.0668 0,-2.7902 -10.9196,-16.9899 -21.5,-27.9583 -10.7896,-11.1851 -24.489,-22.7463 -26.9533,-22.7463 -0.6856,0 -3.0016,-1.2613 -5.1467,-2.8029 -15.207,-10.9292 -47.4427,-23.5407 -69.4,-27.1512 -4.125,-0.6783 -12.225,-2.0555 -18,-3.0605 -15.7523,-2.7414 -31.7847,-4.1049 -48.5,-4.1248 -18.0341,-0.022 -28.9309,1.2215 -45.3266,5.1705 -6.7797,1.6329 -13.0119,2.9689 -13.8494,2.9689 -2.0621,0 -19.7781,7.1964 -28.3793,11.5278 -3.8337,1.9307 -12.1177,6.6144 -18.4088,10.4084 -6.2912,3.794 -12.248,7.1554 -13.2372,7.4699 -0.9893,0.3145 -2.9238,1.5893 -4.2989,2.8329 -1.3751,1.2435 -6.7751,5.6764 -12,9.8507 -10.0178,8.0035 -32.6472,28.395 -33.184,29.9024 -0.1737,0.4876 -3.2797,3.9514 -6.9021,7.6972 -7.8023,8.0681 -30.1541,35.4589 -34.3788,42.1291 -1.6308,2.5749 -5.9058,8.8844 -9.5,14.0211 -10.5482,15.0752 -17.0015,25.2814 -19.7026,31.1605 -1.3899,3.025 -2.881,5.725 -3.3138,6 -1.1398,0.7243 -19.221,33.2482 -23.0713,41.5 -1.7965,3.85 -6.0821,12.85 -9.5236,20 -13.2481,27.5241 -22.4236,48.3774 -22.4236,50.9626 0,0.6766 -0.6419,2.5368 -1.4264,4.1338 -4.4097,8.9762 -26.5736,69.0581 -26.5736,72.0356 0,0.8521 -2.2137,8.5961 -4.9193,17.2087 -7.1035,22.6124 -9.0807,29.3248 -9.0807,30.8277 0,0.7324 -0.45,1.3316 -1,1.3316 -0.55,0 -1,-0.5992 -1,-1.3316 z"
       id="path1" />
  </g>
</svg>
