<?xml version="1.0" encoding="UTF-8" standalone="no"?>
<!-- Created with Inkscape (http://www.inkscape.org/) -->

<svg
   version="1.1"
   id="svg1"
   width="1141.7278"
   height="855.73022"
   viewBox="0 0 1141.7278 855.73022"
   sodipodi:docname="x_logo_superman.png"
   inkscape:version="1.4 (86a8ad7, 2024-10-11)"
   xmlns:inkscape="http://www.inkscape.org/namespaces/inkscape"
   xmlns:sodipodi="http://sodipodi.sourceforge.net/DTD/sodipodi-0.dtd"
   xmlns="http://www.w3.org/2000/svg"
   xmlns:svg="http://www.w3.org/2000/svg">
  <defs
     id="defs1" />
  <sodipodi:namedview
     id="namedview1"
     pagecolor="#ffffff"
     bordercolor="#000000"
     borderopacity="0.25"
     inkscape:showpageshadow="2"
     inkscape:pageopacity="0.0"
     inkscape:pagecheckerboard="0"
     inkscape:deskcolor="#d1d1d1"
     inkscape:zoom="0.85888889"
     inkscape:cx="570.50453"
     inkscape:cy="420.89263"
     inkscape:window-width="1920"
     inkscape:window-height="991"
     inkscape:window-x="-9"
     inkscape:window-y="-9"
     inkscape:window-maximized="1"
     inkscape:current-layer="g1" />
  <g
     inkscape:groupmode="layer"
     inkscape:label="Image"
     id="g1"
     transform="translate(-29.13801,-24)">
    <path
       style="fill:#000000"
       d="M 390.5,636.32258 C 275.55,502.32187 147.21855,352.71636 105.31901,303.8659 L 29.13801,215.04688 128.20029,119.52344 227.26256,24 h 372.7605 372.7605 l 99.04114,95.53238 99.0411,95.53238 -285.01422,332.21762 C 729.09377,730.00207 600.53647,879.60356 600.16869,879.73013 599.80091,879.85669 505.45,770.3233 390.5,636.32258 Z m 260.97052,63.53467 c 35.13766,-40.90569 50.06716,-58.96047 48.41632,-58.5516 -4.26992,1.05755 -30.0868,4.61314 -42.38684,5.83765 -15.73346,1.56633 -63.38473,1.56471 -80.5,-0.003 -21.10738,-1.93305 -42.78813,-4.8789 -63.89847,-8.68213 -10.66916,-1.92216 -19.50024,-3.37414 -19.62464,-3.22663 C 493.12311,635.65132 599.31597,759 600.03092,759 c 0.35005,0 23.49787,-26.61424 51.4396,-59.14275 z M 706.5,533.984 c 50.91501,-2.51603 79.99401,-9.98946 98.60719,-25.34248 11.41836,-9.41839 16.55528,-23.16857 11.32585,-30.31633 -4.28684,-5.85941 -23.04322,-13.63968 -44.00567,-18.25386 C 760.93695,457.54211 733.09129,453.55405 713,451.56016 691.57271,449.43367 664.37983,447.5808 594.5,443.4858 462.88641,435.77317 392.49543,429.12609 318.62253,417.43447 c -8.7326,-1.38208 -16.06373,-2.3266 -16.29139,-2.09894 -0.22766,0.22766 15.84612,19.62269 35.71951,43.10005 35.25191,41.64473 36.18609,42.64838 38.2914,41.13876 13.8227,-9.91161 35.06008,-18.1513 57.15795,-22.17616 13.70982,-2.49708 46.8595,-2.53686 60.5,-0.0726 27.13498,4.90215 48.72534,13.05048 67.44171,25.4529 8.05851,5.33997 23.0088,19.34272 28.19566,26.40865 l 3.50407,4.7735 21.17928,0.29066 c 52.18732,0.7162 73.52912,0.65432 92.17928,-0.2673 z m 302.6726,-248.69702 c 29.0551,-34.76716 52.8367,-63.56716 52.8481,-64 0.011,-0.43284 -15.1762,-15.68327 -33.75,-33.88985 L 994.5,154.29426 994.23949,197.64713 993.97898,241 H 890.48949 787 l -0.006,-6.25 c -0.009,-9.04072 -2.46217,-23.96083 -5.55095,-33.75416 C 775.7946,183.08647 766.68221,168.73932 752.01359,154.66003 728.23513,131.83689 694.65115,116.53286 651,108.62872 c -25.2373,-4.56985 -33.35317,-5.13257 -73,-5.06149 -32.21966,0.0578 -40.10497,0.37963 -56,2.28581 -47.71209,5.72176 -85.62834,17.27842 -109.20484,33.28503 -19.12902,12.9871 -30.74145,33.13671 -29.60041,51.36193 1.66477,26.59065 40.77583,47.02609 106.05866,55.4154 28.75746,3.69554 45.36584,4.46076 87.74659,4.04288 102.74566,-1.01311 127.54089,-0.40088 166.5,4.11113 98.88847,11.45268 166.84777,42.69927 202.95721,93.31647 l 4.91227,6.88589 2.48787,-2.88589 c 1.36832,-1.58723 26.26019,-31.33174 55.31525,-66.0989 z M 188.40888,268.25 c 17.64449,-54.72629 50.76183,-108.70948 93.45111,-152.33072 L 296.5,100.95966 278.90943,100.97983 261.31886,101 199.90943,160.60773 c -33.77519,32.78426 -61.55283,59.98946 -61.7281,60.45601 C 137.86261,221.91216 184.01306,277 185.04256,277 c 0.29986,0 1.81471,-3.9375 3.36632,-8.75 z M 840.86612,105.10032 841.78741,101 h -10.11868 -10.11867 l 7.45212,7.5022 7.45213,7.50219 1.74527,-3.40187 c 0.95989,-1.87103 2.15984,-5.24702 2.66654,-7.5022 z"
       id="path1" />
  </g>
</svg>
